<?xml version="1.0" encoding="utf-8"?>
<COLLADA xmlns="http://www.collada.org/2005/11/COLLADASchema" version="1.4.1" xmlns:xsi="http://www.w3.org/2001/XMLSchema-instance">
  <asset>
    <contributor>
      <author>Blender User</author>
      <authoring_tool>Blender 4.0.1 commit date:2023-11-16, commit time:16:40, hash:d0dd92834a08</authoring_tool>
    </contributor>
    <created>2023-11-29T10:19:01</created>
    <modified>2023-11-29T10:19:01</modified>
    <unit name="meter" meter="1"/>
    <up_axis>Z_UP</up_axis>
  </asset>
  <library_effects>
    <effect id="MA_Material_001-effect">
      <profile_COMMON>
        <newparam sid="untitled_png-surface">
          <surface type="2D">
            <init_from>untitled_png</init_from>
          </surface>
        </newparam>
        <newparam sid="untitled_png-sampler">
          <sampler2D>
            <source>untitled_png-surface</source>
          </sampler2D>
        </newparam>
        <technique sid="common">
          <lambert>
            <emission>
              <color sid="emission">0 0 0 1</color>
            </emission>
            <diffuse>
              <texture texture="untitled_png-sampler" texcoord="Shape_IndexedFaceSet-mesh-map-0"/>
            </diffuse>
            <index_of_refraction>
              <float sid="ior">1.45</float>
            </index_of_refraction>
          </lambert>
        </technique>
      </profile_COMMON>
    </effect>
  </library_effects>
  <library_images/>
  <library_materials>
    <material id="MA_Material_001-material" name="MA_Material_001">
      <instance_effect url="#MA_Material_001-effect"/>
    </material>
  </library_materials>
  <library_geometries>
    <geometry id="Shape_IndexedFaceSet-mesh" name="Shape_IndexedFaceSet">
      <mesh>
        <source id="Shape_IndexedFaceSet-mesh-positions">
          <float_array id="Shape_IndexedFaceSet-mesh-positions-array" count="678">-2.845094 -0.5133565 -4.856285 -0.9737157 -0.3892245 -4.616837 -2.779682 1.422067 -4.74071 -0.8450937 1.486644 -4.856285 -2.724838 -0.4673475 -0.03721952 -0.7851968 -0.4296435 -0.1126174 -2.315592 1.32236 -0.3534856 -0.8413098 1.476572 0.0284214 0.5019224 -0.5796155 1.693937 2.314205 -0.5135465 1.509524 0.5552762 1.01529 1.765707 2.314486 1.486644 1.508997 3.795968 -3.048386 5.199155 5.020892 -2.865066 5.07986 3.693008 -1.642143 4.916007 4.509179 -1.437353 4.643451 -2.834805 0.9859825 -4.832642 -2.845094 0.4866435 -4.856285 -2.845094 -0.01335644 -4.856285 -2.345094 -0.5133565 -4.856285 -1.845094 -0.5133565 -4.856285 -1.348784 -0.4831364 -4.790113 -0.9247918 -0.00120449 -4.683588 -0.8507947 0.4868055 -4.842656 -0.8450937 0.9866436 -4.856285 -1.345094 1.486644 -4.856285 -1.843651 1.46175 -4.797756 -2.322392 1.38548 -4.643078 -2.447788 0.9443245 -0.3423648 -2.625078 0.4852735 -0.1941714 -2.78282 -0.01145845 -0.02201175 -2.106505 -0.5028075 -0.2044434 -1.609652 -0.5104475 -0.2119355 -1.123388 -0.4968264 -0.2149524 -0.7804538 -0.01207047 -0.02824974 -0.6569127 0.4862505 -0.1614866 -0.6804477 0.9844126 -0.1379027 -1.344554 1.486636 0.04288721 -1.768323 1.485978 -0.03924083 -2.019747 1.452088 -0.2725906 -0.8583347 1.473219 -3.631542 -0.8787887 1.451467 -2.408013 -0.8753677 1.452114 -1.186086 -0.9503757 -0.3398994 -1.255881 -1.019299 -0.3094155 -2.439451 -1.051331 -0.2965005 -3.618535 -2.845094 -0.5133565 -3.631344 -2.845094 -0.5133565 -2.406402 -2.845094 -0.5133565 -1.181461 -2.518987 1.299283 -1.332267 -2.608826 1.297891 -2.458048 -2.636846 1.294782 -3.646044 0.3931003 0.7495436 1.685476 0.3211372 0.4590875 1.532289 0.3652613 -0.1499894 1.644642 0.8992894 -0.6985655 1.705625 1.366555 -0.7017214 1.683542 1.836285 -0.6150215 1.601554 2.323973 -0.07230246 1.564115 2.336667 0.3729395 1.610326 2.320545 0.9438645 1.545245 1.814486 1.486644 1.508997 1.349094 1.346191 1.626677 0.9222612 1.160542 1.751978 -1.983979 1.432502 0.3912973 -1.132206 1.353273 0.7765422 -0.2078686 1.125589 1.245957 1.476907 1.437798 1.142785 0.5695503 1.319239 0.7764282 -0.1301066 1.41173 0.4098601 -0.1482207 -0.3703575 0.3556824 0.5702744 -0.3266515 0.7540732 1.350315 -0.3328115 1.140184 -0.2691348 -0.3514055 1.17052 -1.142026 -0.3944085 0.7751103 -1.990483 -0.4569385 0.4008522 3.825844 -2.046343 5.185215 3.928541 -2.573969 5.418615 3.860278 -2.86709 5.310985 4.192094 -3.186349 5.328825 4.754423 -3.366047 5.508646 4.90742 -3.061646 5.245645 5.119284 -2.661233 5.155305 5.006958 -2.234498 5.059793 4.827648 -1.789955 4.901901 4.39296 -1.498414 4.751447 4.208638 -1.580493 4.88007 3.935024 -1.626995 4.928658 3.281223 -1.370617 2.633074 3.996765 -1.981088 3.680524 4.719879 -2.609551 4.586237 3.23352 -2.734123 4.675372 2.364131 -2.024278 3.702011 1.295435 -1.352178 2.631072 3.16651 0.5619585 2.604372 3.763722 -0.3286694 3.511969 4.215148 -1.006993 4.199435 3.20606 -1.164376 4.438555 2.410857 -0.4076085 3.674665 1.281223 0.6293824 2.633074 -2.345094 -0.01335644 -4.856285 -2.345094 0.4866435 -4.856285 -2.344897 0.9853495 -4.853516 -1.845094 -0.01335644 -4.856285 -1.845094 0.4866435 -4.856285 -1.845092 0.9866235 -4.85624 -1.346333 -0.01302748 -4.853193 -1.345094 0.4866435 -4.856284 -1.345094 0.9866436 -4.856285 -0.5561078 1.485707 0.4098601 -1.055193 1.486637 0.4098592 -1.555199 1.486644 0.4098601 0.1978583 1.437939 0.7783384 -0.2560498 1.458194 0.7832346 -0.7274238 1.44838 0.7766175 1.015261 1.454527 1.150046 0.5555914 1.403035 1.190149 0.1318082 1.292963 1.235936 -0.9099757 0.05576151 -3.627537 -0.8511688 0.4996135 -3.643239 -0.8431348 0.9816796 -3.638861 -0.8811457 0.04898548 -2.437466 -0.8296857 0.4938254 -2.438102 -0.8339757 0.9771365 -2.42882 -0.8367168 0.02858752 -1.237534 -0.7802518 0.4867555 -1.256478 -0.7945438 0.9784485 -1.245313 -2.81506 0.9609895 -3.636103 -2.845094 0.4866435 -3.631344 -2.845094 -0.01335644 -3.631344 -2.809478 0.9661055 -2.422791 -2.845094 0.4866435 -2.406402 -2.845094 -0.01335644 -2.406402 -2.728671 0.9536516 -1.272145 -2.845094 0.4866435 -1.181461 -2.845094 -0.01335644 -1.181461 -1.345094 1.486644 -3.631343 -1.832012 1.477815 -3.635941 -2.263683 1.417539 -3.638741 -1.34509 1.486606 -2.406421 -1.820245 1.47613 -2.421984 -2.237687 1.423591 -2.454614 -1.345091 1.486639 -1.181466 -1.804413 1.478369 -1.216685 -2.170701 1.428565 -1.307885 -2.345094 -0.5133565 -3.631343 -1.845117 -0.5133295 -3.631349 -1.392125 -0.4575434 -3.636419 -2.345094 -0.5133565 -2.406402 -1.845103 -0.5131345 -2.406633 -1.375062 -0.4584314 -2.433656 -2.345094 -0.5133565 -1.181461 -1.831104 -0.5120105 -1.197952 -1.312072 -0.4670825 -1.267554 1.770612 -1.378795 2.632073 2.281223 -1.370617 2.633074 2.781223 -1.370617 2.633074 2.748766 -2.196838 3.740278 3.24796 -2.227878 3.757151 3.729523 -2.207979 3.74304 3.657599 -2.976461 4.791918 4.183647 -3.046036 4.848757 4.461778 -2.808063 4.668125 -1.543681 -0.5114415 0.3994203 -1.017513 -0.5124855 0.3691015 -0.5047938 -0.4966275 0.3374343 -0.7244167 -0.4790474 0.7704492 -0.2407317 -0.5013524 0.7595692 0.2229902 -0.4700164 0.7491832 0.1008372 -0.4836795 1.170944 0.5574012 -0.5269644 1.169198 1.006069 -0.4935895 1.156489 -0.05723774 0.005236506 0.3918696 -0.05519974 0.4866425 0.4098592 -0.05684268 0.9849995 0.4098601 0.6992273 0.03055548 0.7674785 0.7346802 0.4866425 0.7762375 0.7079761 0.9596415 0.7762451 1.473434 0.04122948 1.140034 1.515464 0.4962355 1.142118 1.517699 0.9811075 1.142593 -1.989006 0.9740075 0.3516512 -2.020635 0.4854645 0.3735733 -2.046077 -0.01081645 0.4029121 -1.242156 0.9627415 0.7770782 -1.265191 0.4865215 0.7762485 -1.256107 -0.006584465 0.7763972 -0.3768017 0.8197556 1.218442 -0.4460437 0.4374775 1.168365 -0.4204557 -6.9949e-4 1.164302 4.393086 -3.055615 5.548165 4.960985 -3.21433 5.750655 5.062296 -2.901366 5.442515 4.396043 -2.689352 5.541655 4.859197 -2.720862 5.635805 5.125849 -2.566751 5.500905 4.234075 -2.167726 5.308945 4.60854 -2.165097 5.340215 4.84949 -2.045377 5.228335 3.281223 -0.8706174 2.633074 3.281223 -0.3706175 2.633074 3.233092 0.1320955 2.604187 4.231465 -1.7128 3.749442 4.240237 -1.223236 3.751379 3.989781 -0.6867044 3.584645 4.935479 -2.366611 4.676544 4.763361 -1.825555 4.527112 4.491279 -1.331164 4.331911 1.281223 0.1293825 2.633074 1.281223 -0.3706175 2.633074 1.276145 -0.8759425 2.63338 2.280949 -0.7661345 3.676015 2.255846 -1.236876 3.740115 2.25738 -1.696457 3.73596 3.168993 -1.545512 4.611164 3.205829 -2.077957 4.813902 3.19273 -2.519243 4.812932 2.770674 0.6342065 2.6306 2.281223 0.6298745 2.63345 1.781223 0.6293824 2.633074 3.445194 -0.2066255 3.519041 3.094412 -0.2039654 3.575234 2.758457 -0.2669485 3.668436 3.948564 -0.9139974 4.198579 3.685252 -0.9317205 4.272457 3.418161 -1.00595 4.355467</float_array>
          <technique_common>
            <accessor source="#Shape_IndexedFaceSet-mesh-positions-array" count="226" stride="3">
              <param name="X" type="float"/>
              <param name="Y" type="float"/>
              <param name="Z" type="float"/>
            </accessor>
          </technique_common>
        </source>
        <source id="Shape_IndexedFaceSet-mesh-normals">
          <float_array id="Shape_IndexedFaceSet-mesh-normals-array" count="1269">0 0 -1 0 0.005552232 -0.9999846 0.006198942 0 -0.9999808 1.90742e-6 8.9649e-5 -1 0 0.04729562 -0.9988809 -0.04133695 0.211102 -0.9765896 -0.006009936 0.465731 -0.884906 -9.34849e-5 0.12217 -0.9925093 0.02755945 -1.89848e-6 -0.9996203 0.3734158 -0.006664097 -0.9276402 0.4412134 -0.1216031 -0.8891251 0.1321548 0 -0.9912291 0.04495298 0.9982875 0.03743559 -0.02238899 0.9920928 0.1234941 -0.09545481 0.9814768 0.1661075 -0.1748527 0.8671663 0.4663146 0.169165 0.9741349 -0.1498143 0.0018633 0.9999973 -0.001471638 1.21564e-5 0.9999989 -0.001489043 -0.1267307 0.991281 0.0360741 -0.1946603 0.828072 0.5257416 -0.2818199 0.6159865 0.7356209 -0.2722976 0.7454664 0.6083864 -0.216512 0.8369927 0.5025593 -0.1909159 0.9198083 0.3427882 0 0.9912217 -0.1322107 0.02784645 0.9287971 -0.3695409 0.2867802 0.9031521 -0.3194893 0.9930679 -0.1149157 -0.02471178 0.9997037 -0.01649779 -0.01790016 0.9915472 -0.1238042 -0.03881776 0.9990818 0.009669601 -0.04173928 0.9237717 -0.3679812 0.1059993 0.9912825 -0.1315781 -0.006809651 0.9998611 -0.01666754 4.89779e-4 0.9995205 0.03093051 -0.001482188 0.9994911 0.03101819 -0.007448911 0.9948785 0.09545129 -0.03325301 0.9784455 0.179683 -0.1017765 0.9932273 0.03141003 -0.111862 0.9657962 -0.2537303 -0.0534653 0.9456356 -0.2837676 -0.1589009 0.9313145 -0.3586429 -0.0634706 0.9327324 -0.3593789 -0.02927583 -0.9979895 0.06323254 0.004324615 -1 0 0 -0.9945775 0.07629567 0.07067263 -0.8675746 0.4681979 0.1676456 -0.9978324 0.06335765 0.01778948 -0.9903689 -0.1277415 0.05340176 -0.9760575 0 0.217513 -0.9173349 0.283051 0.2799625 -0.9260091 0.3292501 0.1846659 -0.850573 0.5215414 0.06723213 -0.8817317 0.4713456 0.0195629 -0.02204513 0.9997571 3.03056e-5 -0.1250709 0.9921445 0.002589285 -0.01799982 0.9998381 -2.71152e-5 -0.1347147 0.9908845 -7.19405e-5 0 0.99994 0.01095986 -0.04986995 0.9987557 0 -0.1611081 0.9868634 -0.01203203 -0.3122538 0.949922 -0.01206922 -0.3208073 0.9471419 0.002201437 -0.3489514 0.9369987 0.0163204 -0.4102323 0.9111421 0.03911232 -0.1314126 0.9913249 -0.00237751 -0.001555621 0.9999989 3.21691e-6 0.07306867 0.9970814 -0.02212828 0.07514327 0.9971725 -7.39046e-4 0.02757072 0.9994537 0.01823025 4.43943e-4 -1 0 0.115608 -0.993295 1.5684e-4 0.00261867 -0.9999966 0 0.08622902 -0.9962754 -7.2206e-5 0 -1 0 5.3885e-5 -1 0 0.06077378 -0.9981516 2.30757e-5 0.2296234 -0.9728108 0.03020662 0.4275294 -0.9039765 -0.006732523 0.3858094 -0.9221632 -0.0276817 0.3329597 -0.9389912 -0.08621823 0.08392685 -0.9963223 -0.01727008 0.002941906 -0.9999449 0.01007807 0 -0.9991926 0.04017663 0.01396876 -0.798536 -0.601785 0 -0.7951516 -0.6064107 -0.03118908 -0.8156428 -0.5777146 0.01499176 -0.7938933 -0.6078723 -0.2365532 -0.8384712 -0.4909263 -0.03254508 -0.819988 -0.5714548 0.04205566 -0.7972748 -0.6021497 0.04753214 -0.7845548 -0.6182351 0 -0.7983093 -0.6022477 0.3026694 -0.6722331 -0.6756434 0.3662921 -0.7143225 -0.5962998 0.3284505 -0.706604 -0.6267624 -0.0964151 -0.9558261 -0.2776701 -0.4995479 -0.8661242 0.01676136 -0.3619552 -0.8769218 -0.3162225 -0.04750168 -0.8667179 -0.4965317 0.002693831 -0.9967045 0.08107292 0.02908825 -0.9991451 -0.02937936 -0.04413717 -0.9958628 0.07943063 0.06221675 -0.9812213 -0.1825759 -0.0348975 -0.9960075 0.08216625 -0.01537442 -0.9998818 3.33004e-5 0.02778917 -0.9991071 -0.03182476 0.2737959 -0.911716 -0.3062838 0.311863 -0.8085576 -0.498975 0.3047005 -0.7167036 -0.6272906 0.2763894 -0.6623994 -0.6963016 0.05671471 -0.9147487 -0.4000227 -0.09234333 -0.9639587 -0.2495123 -0.3355169 -0.9381722 0.08521425 -0.170278 -0.8660401 0.4700853 -0.1096796 -0.9096515 0.4006301 0.4436564 0.03159093 -0.89564 0.4206601 0.02376377 -0.906907 0.433742 -0.01641458 -0.9008876 0.4243385 -0.001068949 -0.905503 0.5756735 0.1556471 -0.8027291 0.4791582 -0.3356347 -0.8110222 0.6885685 0.002271354 -0.7251678 0.6556875 0.112573 -0.7465931 0.4305024 0.1661723 -0.887161 0.4111093 0.03710204 -0.9108307 0.4456081 -0.0546987 -0.8935556 0.4837483 -0.08562827 -0.8710083 0.4532599 0.07922667 -0.8878505 0.3372985 -0.1114004 -0.9347832 0.4393308 -0.1252167 -0.8895557 0.4862138 -0.03365033 -0.8731918 -0.4945799 0.02240908 0.8688433 -0.4703549 -0.008398532 0.8824374 -0.4584624 -0.03329724 0.8880899 -0.4321309 -0.007688522 0.9017782 -0.9118404 -0.02543461 0.4097562 -0.8331717 0.07850468 0.5474138 -0.6825635 0.07795017 0.7266573 -0.4974356 -0.09204071 0.8626044 -0.4264679 -0.0573129 0.9026851 -0.4169791 -0.1256443 0.90019 -0.5388669 -0.2180814 0.8136727 -0.4275836 -0.03334408 0.9033607 -0.5149374 -0.2966008 0.8042808 -0.5522065 0.08665543 0.8291916 -0.4179792 0.1502735 0.8959416 -0.4005837 0.1140274 0.9091372 -0.1979274 0.01901674 0.9800323 0.78229 0.2897064 0.551446 -0.07947307 0.3854454 0.9193019 0.1336441 0.5116766 0.8487206 -0.4033281 -0.3724882 0.8358105 -0.4097497 -0.5678257 0.7139183 0.7518583 -0.6047754 -0.2625949 0.7964677 -0.5858895 -0.1495761 0.9807704 -0.1921965 0.03391242 0.8282114 0.5316544 0.177228 0.31053 0.7586002 0.5727974 0.04213821 0.6355873 0.7708782 0.04276579 0.5904529 0.8059383 -0.07745951 0.5349087 0.8413518 -0.1663158 0.3716562 0.9133514 -0.3059863 -0.2645454 0.9145426 0.7573403 -0.01098537 -0.6529281 0.8161941 0.2142515 -0.5365852 0.8277184 0.1114146 -0.549972 0.8788307 0.3600323 -0.3131029 0.75793 0 -0.652336 0.7449597 0 -0.6671095 0.7461508 0.03322911 -0.6649472 0.7966167 0.1236432 -0.5917046 0.8411299 0.4808164 -0.2476208 0.7443072 0.6638363 0.07299476 0.6416308 0.7365055 0.2141721 0.9321234 0.3087776 -0.1892151 0.9497895 0.1952899 -0.2444626 0.6882534 -0.3813992 -0.617124 0.6034777 -0.3430187 -0.7198284 0.6393129 -0.3888679 -0.6633709 -0.7219051 0 0.6919922 -0.7474671 0.007913708 0.6642518 -0.659407 0.1358469 0.7394106 -0.7522195 -0.008467197 0.6588583 -0.697696 0.2199424 0.6817959 -0.766616 -0.1405064 0.6265444 -0.7231365 0.07428532 0.6866989 -0.78622 -0.1823457 0.5904306 -0.758982 -0.03389507 0.6502289 -0.8225201 -0.3167625 0.4723581 -0.6536188 -0.2156318 0.7254554 -0.6346785 0.01714181 0.7725863 -0.5040773 0.2766528 0.8181501 -0.4009702 0.4100029 0.8192195 -0.5670725 0.2084742 0.7968484 -0.6778762 0 0.735176 0.1081116 0.7617207 0.638822 0.03581231 0.7633778 0.6449588 0.1367979 0.7351645 0.6639423 0.02584689 0.7024273 0.7112861 0.1853197 0.8172162 0.5457237 -0.003500819 0.7947108 0.6069781 -0.001236915 0.8142647 0.5804924 0 0.8564181 0.5162831 -0.2349973 0.6140937 0.7534356 -0.1425768 0.6026629 0.7851556 -0.07999539 0.6392889 0.7647944 0.01173686 0.6885558 0.7250885 0.1374398 0.7338554 0.6652568 0.1771954 0.7627473 0.6219474 0.2659608 0.767771 0.5829175 0.3083022 0.7724846 0.5551732 -0.005449593 8.96705e-5 -0.9999852 1.90857e-6 -0.00618565 -0.9999809 -8.77384e-5 -1.90735e-6 -1 -0.04256218 0.005563974 -0.9990784 0.2209152 0.4442117 -0.8682583 -0.3221226 0.1166203 -0.9394876 -0.1165959 0 -0.9931795 0 -0.0272566 -0.9996286 0.02627527 -0.3133956 -0.9492591 0.3704074 -0.2026494 -0.9064942 0.006232082 -0.1330177 -0.9910941 0.001858294 0.9974028 0.07200264 1.22845e-5 0.9946048 0.1037369 0.04502457 0.9979504 0.04547226 -0.02447819 0.9321656 0.3612038 0.0188865 0.9990975 -0.0380479 -0.001834928 0.9999973 0.001445889 -0.230567 0.9670464 0.1079819 -0.4123257 0.9097149 0.04905384 -0.1306118 0.8737673 0.4684777 -0.1682078 0.7153668 0.678201 -0.3279315 0.703289 0.63075 -0.1710169 0.8590913 0.482406 -0.08319622 0.9575721 0.2759243 0.03318965 0.9862101 -0.1621369 0.2460301 0.7796744 -0.5758272 0.1670168 0.961764 -0.2170608 0.9910864 -0.1319587 -0.01830106 0.9999309 0.009020149 -0.007534801 0.9924831 -0.1148729 -0.04220843 0.9990006 0.02979439 -0.03331756 0.9919673 -0.1262958 -0.007104218 0.9887886 -0.1493102 0.001902699 0.9999331 -0.01145017 -0.001655638 0.9999416 0 0.01081061 0.9954749 0.0932464 0.01829934 0.9856892 0.1685492 -0.002848982 0.9466516 0.3205649 -0.03300219 0.993371 0.05178898 -0.1026255 0.9857795 -0.1260818 -0.1110957 0.9989146 -0.001942813 -0.04654067 0.9553619 -0.2926703 -0.04034858 0.9275692 -0.3728412 -0.02459365 -0.9972524 0.07407897 0 -0.9703031 0.2418924 0 -0.9924165 0.1214578 0.01891368 -0.9997878 0.02060139 0 -0.9945227 0 0.104521 -0.9467254 0.3180852 0.05032789 -0.8908582 0.4083305 0.1990931 -0.8080832 0.5336341 0.2494717 -0.8480712 0.5258497 0.06524968 -0.8556047 0.517627 0.001753568 -0.01814413 0.9998342 0.001563489 -0.1382792 0.9903913 -0.002026796 -0.02199274 0.9997569 -0.001568913 -0.1251028 0.9921392 0.003005266 0.02756792 0.99962 0 -0.01799893 0.999745 -0.01364332 -0.1381044 0.9901381 -0.02353268 0.05634325 0.9925466 0.1080598 -0.3125723 0.9498814 0.004886388 -0.3208971 0.9467988 0.0244373 -0.3506694 0.9351193 0.05082291 -0.1340035 0.9909764 -0.002978205 -0.0175476 0.9998286 -0.005922615 0.01999408 0.9998001 -6.57675e-6 0.0733028 0.9973098 -2.6861e-5 0.0751459 0.9971727 2.97606e-5 5.38869e-5 -1 1.59273e-4 0.1221992 -0.9925026 -0.002466261 4.44371e-4 -0.9999995 9.24802e-4 0.1148185 -0.9932938 -0.0135712 0 -1 2.19648e-5 0.1224769 -0.9921147 0.02660959 0.4193627 -0.9003475 0.1162302 0.3859737 -0.9222801 -0.0205878 0.3326566 -0.9420381 -0.04363471 0.2251906 -0.9682499 -0.1085414 0.02777934 -0.9990623 -0.03321063 -0.01529908 -0.9998704 0.005020976 -0.05097573 -0.9984298 0.02322846 -0.03026199 -0.8071668 -0.5895475 0.01484745 -0.7920815 -0.6102348 -0.0462225 -0.8179482 -0.573432 0.2109498 -0.7353693 -0.6439971 -0.04502278 -0.8249716 -0.5633782 0.01413512 -0.8109771 -0.5849073 0 -0.8067226 -0.5909304 0 -0.7950792 -0.6065057 0.3980768 -0.6478289 -0.6495019 0.3540585 -0.6118986 -0.7072643 0.3638564 -0.7178994 -0.5934889 0.2931225 -0.7713545 -0.5648818 -0.2134443 -0.9387277 -0.270614 -0.3100444 -0.9486848 -0.06220829 -0.4169188 -0.8645424 -0.2806159 -0.3593798 -0.8737382 -0.327762 -0.04319977 -0.9925137 0.1142387 0.06615668 -0.9964252 -0.0525366 -0.09324729 -0.9883989 0.1198861 0.0676164 -0.9800834 -0.186721 -0.1201962 -0.9879109 0.09790241 -0.002065002 -0.999997 -0.001402974 0.0289222 -0.9990684 -0.03202897 0.3295878 -0.8820718 -0.3366325 0.3333691 -0.7899948 -0.5145613 0.3049137 -0.7164888 -0.6274325 0.06442266 -0.8196553 -0.5692232 0.09325283 -0.9026166 -0.4202229 -0.02029716 -0.9559385 -0.2928646 -0.2876987 -0.9566561 0.04515177 -0.2784122 -0.7769126 0.5647065 -0.1719092 -0.873304 0.4558371 0.4207299 -0.01528465 -0.9070572 0.4320712 0.0014261 -0.9018384 0.4244199 -0.03506028 -0.9047864 0.4115866 0.02325159 -0.9110741 0.5026193 -0.03854376 -0.8636483 0.6883617 0.02417701 -0.7249647 0.6584416 0.06659841 -0.7496795 0.4590526 0.4154294 -0.7852956 0.4709339 0.08085322 -0.8784556 0.3553771 0.1372721 -0.9245883 0.3985876 0.03598582 -0.916424 0.4482632 -0.001190483 -0.8939008 0.4901923 -0.04129219 -0.8706357 0.4546008 0.09944438 -0.8851265 0.4308036 -0.1421605 -0.8911782 0.4445264 -0.1271997 -0.8866885 -0.4693067 0.06988316 0.8802657 -0.4265418 0.07515156 0.9013403 -0.4307504 0.0192635 0.9022656 -0.4206238 -0.03296804 0.9066361 -0.80262 0.2959063 0.5179196 -0.6124979 0.4470151 0.6519386 -0.4543554 0.4170961 0.7871418 -0.5104316 -0.06756663 0.8572598 -0.3933906 -0.1187441 0.9116708 -0.4010767 -0.1570538 0.9024809 -0.5775601 -0.09062969 0.8113018 -0.5007586 0.1218052 0.856974 -0.4272887 -0.04092174 0.9031888 -0.4952158 0.1974261 0.8460403 -0.4345911 0.1235787 0.8921093 -0.4945539 -0.06949204 0.8663645 -0.2917552 0.1593248 0.9431302 0.5462302 -0.2435954 0.8014324 -0.1550589 0.4084755 0.8995023 0.1370169 0.5149992 0.8461692 -0.4924476 -0.4709157 0.7319384 -0.4126382 -0.5706853 0.7099633 0.8287551 -0.5052242 -0.2406523 0.9109998 -0.3869184 -0.1427367 0.9681396 0.2362622 -0.08298164 0.846675 0.4450891 0.2916116 0.2447631 0.7072274 0.6632651 0.1530269 0.7189068 0.678053 -0.07150191 0.5862567 0.8069638 -0.094262 0.5372982 0.8381083 -0.1524102 0.3628045 0.9193172 -0.4008283 0.01951503 0.9159454 0.7591001 0 -0.650974 0.8081912 0.04363059 -0.5873018 0.8244908 -0.01253324 -0.5657367 0.8912089 0.3144212 -0.3269346 0.7661483 0.0621767 -0.6396491 0.7506195 0.04700285 -0.6590608 0.7345613 -0.05633884 -0.6761994 0.7749868 -0.03349423 -0.6310893 0.8839185 0.137103 -0.4470916 0.8482797 0.5283434 -0.03570467 0.7072178 0.6806082 0.1913521 0.8898433 0.4139251 -0.1919505 0.9397296 0.2287563 -0.254124 0.8498456 -0.2357663 -0.4713562 0.6409142 -0.307311 -0.7034124 0.7614913 0 -0.6481752 -0.6896097 0.133689 0.7117344 -0.7501173 -0.008481681 0.6612505 -0.6266962 0.2390571 0.7416897 -0.746954 0.02071088 0.6645532 -0.7296331 0 0.6838389 -0.7536282 0 0.6573011 -0.7325964 0.007774233 0.6806189 -0.7765581 -0.03450453 0.6291004 -0.76306 -0.3073627 0.5685663 -0.8073108 -0.4191676 0.4153888 -0.7287989 -0.4619209 0.5054517 -0.635838 -0.1312017 0.7605895 -0.5053371 0.2649269 0.821248 -0.3996624 0.4135255 0.8180872 -0.4736024 0.4011517 0.7840779 -0.6022164 0.2210958 0.7671064 -0.002749085 0.7475288 0.6642237 -0.001235306 0.7554659 0.6551869 0.1129087 0.7336427 0.6700896 0.06208413 0.7087377 0.702735 0 0.7961558 0.6050917 -0.07678371 0.7774482 0.6242424 -0.1548535 0.7720618 0.6163935 -0.281839 0.7666038 0.5769623 0 0.70867 0.7055401 -0.216937 0.5711543 0.7916573 -0.1557855 0.6142709 0.7735646 0.03179734 0.692047 0.7211518 0.1372718 0.7338405 0.665308 0.2636043 0.7611039 0.5926498 0.3052369 0.7636906 0.5688647 0.1819834 0.7794196 0.5994891</float_array>
          <technique_common>
            <accessor source="#Shape_IndexedFaceSet-mesh-normals-array" count="423" stride="3">
              <param name="X" type="float"/>
              <param name="Y" type="float"/>
              <param name="Z" type="float"/>
            </accessor>
          </technique_common>
        </source>
        <source id="Shape_IndexedFaceSet-mesh-map-0">
          <float_array id="Shape_IndexedFaceSet-mesh-map-0-array" count="2688">0.7489027 0.3579497 0.7931162 0.4008743 0.7565367 0.4012171 0.8024257 0.05436432 0.7673479 0 0.819057 0.01221299 0.7991449 0.3579497 0.8280223 0.4102847 0.7931162 0.4008743 0.7646134 0.04766619 0.7121281 0.003904223 0.7673479 0 0.7227514 0.4118901 0.7614017 0.4335978 0.7363268 0.4366524 0.7002061 0.3750455 0.7565367 0.4012171 0.7227514 0.4118901 0.8343788 0.06889152 0.819057 0.01221299 0.8620582 0.04048466 0.8179885 0.08592998 0.8024257 0.05436432 0.8343788 0.06889152 0.7938464 0.08619153 0.7646134 0.04766619 0.8024257 0.05436432 0.7621 0.08161658 0.7254127 0.05056488 0.7646134 0.04766619 0.7334384 0.08346867 0.690859 0.06638437 0.7254127 0.05056488 0.7254127 0.05056488 0.6594814 0.02886503 0.7121281 0.003904223 0.8457179 0.3726456 0.8564388 0.4278591 0.8280223 0.4102847 0.8280223 0.4102847 0.8374581 0.4443743 0.8160942 0.4377197 0.7931162 0.4008743 0.8160942 0.4377197 0.7889678 0.4334739 0.7565367 0.4012171 0.7889678 0.4334739 0.7614017 0.4335978 0.171853 0.2910528 0.1925559 0.3327044 0.1747777 0.3724604 0.1943818 0.2478297 0.2116122 0.2910904 0.1925559 0.3327044 0.1747777 0.3724604 0.1976394 0.4180187 0.1799268 0.4513394 0.1925559 0.3327044 0.2208571 0.3859216 0.1976394 0.4180187 0.1514219 0.2474526 0.171853 0.2910528 0.1543329 0.3291488 0.1802838 0.2064489 0.1943818 0.2478297 0.171853 0.2910528 0.1963573 0.1714021 0.2156422 0.2089596 0.1943818 0.2478297 0.1944172 0.1429406 0.2316284 0.1803439 0.2156422 0.2089596 0.2156422 0.2089596 0.231363 0.2572448 0.2116122 0.2910904 0.2116122 0.2910904 0.2447757 0.3588654 0.2208571 0.3859216 0.2208571 0.3859216 0.251817 0.4438371 0.2297321 0.4667683 0.1976394 0.4180187 0.2297321 0.4667683 0.2028601 0.4868627 0.1799268 0.4513394 0.2028601 0.4868627 0.1825526 0.5084087 0.169054 0.482143 0.1825526 0.5084087 0.171524 0.5297381 0.1587029 0.4050495 0.1799268 0.4513394 0.169054 0.482143 0.1543329 0.3291488 0.1747777 0.3724604 0.1587029 0.4050495 0.8800489 0.5032311 0.925803 0.6016179 0.8867787 0.6040117 0.6585991 0.1453269 0.6028349 0.2410551 0.6185391 0.1338464 0.8867787 0.6040117 0.9297254 0.7057209 0.8891693 0.7088551 0.6452407 0.2460183 0.5956234 0.346257 0.6028349 0.2410551 0.8374581 0.4443743 0.8800489 0.5032311 0.8491331 0.5077796 0.8564388 0.4278591 0.916716 0.4956638 0.8800489 0.5032311 0.6594814 0.02886503 0.6585991 0.1453269 0.6185391 0.1338464 0.690859 0.06638437 0.6949037 0.1544463 0.6585991 0.1453269 0.6949037 0.1544463 0.6452407 0.2460183 0.6585991 0.1453269 0.6859042 0.2507761 0.6393489 0.3497453 0.6452407 0.2460183 0.07092118 0.1597561 0.0955516 0.2644624 0.03616654 0.1797007 0.03616654 0.1797007 0.0520786 0.282047 9.81721e-5 0.2022355 0.5606586 0.08017426 0.5764603 0.1701439 0.534552 0.1711663 0.5606586 0.08017426 0.4972674 0.162629 0.5347375 0.07043915 0.8867787 0.6040117 0.8552509 0.708135 0.8538041 0.605027 0.8491331 0.5077796 0.8867787 0.6040117 0.8538041 0.605027 0.8981417 0.1405379 0.8644707 0.2488998 0.857816 0.1475229 0.6774564 0.4872781 0.6108875 0.5808193 0.6369241 0.47034 0.9062579 0.2489184 0.8639961 0.3485146 0.8644707 0.2488998 0.6108875 0.5808193 0.6404032 0.6967552 0.5956234 0.6905246 0.8179885 0.08592998 0.857816 0.1475229 0.8253822 0.1513677 0.8343788 0.06889152 0.8981417 0.1405379 0.857816 0.1475229 0.7227514 0.4118901 0.6369241 0.47034 0.7002061 0.3750455 0.7363268 0.4366524 0.6774564 0.4872781 0.7227514 0.4118901 0.6774564 0.4872781 0.6982674 0.5964093 0.6554809 0.5890242 0.6982674 0.5964093 0.6404032 0.6967552 0.6554809 0.5890242 0.3582825 0.001030743 0.3826676 0.078956 0.3564246 0.07977157 0.3582825 0.001030743 0.3173564 0.07880377 0.3193306 0 0.2343128 0 0.242128 0.09752923 0.1926262 0.02072781 0.1605219 0.04175931 0.242128 0.09752923 0.2108907 0.1176236 0.8644707 0.2488998 0.8283209 0.3438957 0.8315982 0.2472915 0.857816 0.1475229 0.8315982 0.2472915 0.8253822 0.1513677 0.72994 0.1579249 0.7645485 0.2523117 0.7251305 0.2528715 0.7655676 0.1576965 0.799157 0.2490324 0.7645485 0.2523117 0.7251305 0.2528715 0.7635442 0.3552357 0.723135 0.3579497 0.7645485 0.2523117 0.7958601 0.3469394 0.7635442 0.3552357 0.7334384 0.08346867 0.6949037 0.1544463 0.7100843 0.08935981 0.7621 0.08161658 0.72994 0.1579249 0.7334384 0.08346867 0.7938464 0.08619153 0.7655676 0.1576965 0.7621 0.08161658 0.7938464 0.08619153 0.8253822 0.1513677 0.7967644 0.1552135 0.7967644 0.1552135 0.8315982 0.2472915 0.799157 0.2490324 0.799157 0.2490324 0.8283209 0.3438957 0.7958601 0.3469394 0.1378652 0.06868028 0.2108907 0.1176236 0.1944172 0.1429406 0.1212369 0.100448 0.1944172 0.1429406 0.1963573 0.1714021 0.09770983 0.1326909 0.1963573 0.1714021 0.1802838 0.2064489 0.09770983 0.1326909 0.1514219 0.2474526 0.07092118 0.1597561 0.7251305 0.2528715 0.6815976 0.3566663 0.6859042 0.2507761 0.72994 0.1579249 0.6859042 0.2507761 0.6949037 0.1544463 0.7519366 0.5071288 0.7815387 0.6054397 0.7401149 0.601647 0.7867983 0.5101858 0.8212577 0.6051422 0.7815387 0.6054397 0.7401149 0.601647 0.7749833 0.70944 0.7293494 0.7070224 0.7815387 0.6054397 0.8216311 0.7060181 0.7749833 0.70944 0.7614017 0.4335978 0.7176245 0.5007777 0.7363268 0.4366524 0.7614017 0.4335978 0.7867983 0.5101858 0.7519366 0.5071288 0.8160942 0.4377197 0.7867983 0.5101858 0.7889678 0.4334739 0.8374581 0.4443743 0.8197339 0.5090896 0.8160942 0.4377197 0.8491331 0.5077796 0.8212577 0.6051422 0.8197339 0.5090896 0.8538041 0.605027 0.8216311 0.7060181 0.8212577 0.6051422 0.5347375 0.07043915 0.4789081 0.1360368 0.5092033 0.05509251 0.5092033 0.05509251 0.447628 0.1127599 0.4718513 0.03880119 0.4718513 0.03880119 0.4186118 0.0917862 0.4360781 0.02047133 0.4360781 0.02047133 0.3826676 0.078956 0.3985158 0.005547344 0.6982674 0.5964093 0.7293494 0.7070224 0.6850745 0.7022246 0.7519366 0.5071288 0.6982674 0.5964093 0.7176245 0.5007777 0.5581985 0.528831 0.5454 0.6430022 0.5223023 0.512533 0.05414557 0.6969647 0.05393856 0.8149555 0.01777064 0.6808664 0.5791177 0.6613113 0.566941 0.7541736 0.5454 0.6430022 0.09187769 0.8229238 0.1066803 0.9387327 0.05393856 0.8149555 0.4955527 0.4001764 0.4908258 0.4966121 0.4640833 0.3739894 0.5301547 0.4202232 0.5223023 0.512533 0.4955527 0.4001764 0.03743988 0.574294 0.01777064 0.6808664 0 0.557605 0.07191663 0.5891165 0.05414557 0.6969647 0.03743988 0.574294 0.08960181 0.7109094 0.09187769 0.8229238 0.05414557 0.6969647 0.09187769 0.8229238 0.1534467 0.904549 0.1318072 0.9169791 0.1318072 0.9169791 0.1750352 0.9412335 0.1693033 0.9610658 0.1066803 0.9387327 0.1693033 0.9610658 0.1608377 0.9962845 0.5956234 0.778598 0.5726125 0.8078312 0.566941 0.7541736 0.566941 0.7541736 0.5575268 0.7811784 0.5449235 0.7282162 0.5454 0.6430022 0.5449235 0.7282162 0.5199301 0.6213327 0.5223023 0.512533 0.5199301 0.6213327 0.4908258 0.4966121 0.4521698 0.1806361 0.4440253 0.2235321 0.4204812 0.1517754 0.4861767 0.2116515 0.4748119 0.2556069 0.4521698 0.1806361 0.4748119 0.2556069 0.4685752 0.3067574 0.4440253 0.2235321 0.5064347 0.2859947 0.5018903 0.3376585 0.4748119 0.2556069 0.4186118 0.0917862 0.396797 0.1284965 0.3826676 0.078956 0.447628 0.1127599 0.4204812 0.1517754 0.4186118 0.0917862 0.4789081 0.1360368 0.4521698 0.1806361 0.447628 0.1127599 0.4972674 0.162629 0.4861767 0.2116515 0.4789081 0.1360368 0.5103378 0.2352014 0.5064347 0.2859947 0.4861767 0.2116515 0.5343662 0.306628 0.5345629 0.3630094 0.5064347 0.2859947 0.03902971 0.5130229 0.03743988 0.574294 0.009130001 0.4960052 0.5345629 0.3630094 0.5301547 0.4202232 0.5018903 0.3376585 0.5018903 0.3376585 0.4955527 0.4001764 0.4685752 0.3067574 0.4685752 0.3067574 0.4640833 0.3739894 0.4409031 0.2808644 0.4440253 0.2235321 0.4409031 0.2808644 0.4180874 0.197445 0.4204812 0.1517754 0.4180874 0.197445 0.396797 0.1284965 0.07019752 0.3540881 0.04704278 0.4383522 0.02665078 0.3634941 0.07019752 0.3540881 0.1273936 0.4200676 0.08712846 0.4304601 0.08712846 0.4304601 0.07163399 0.5079923 0.04704278 0.4383522 0.08712846 0.4304601 0.1378442 0.4888787 0.1052743 0.4980842 0.534552 0.1711663 0.5103378 0.2352014 0.4972674 0.162629 0.5764603 0.1701439 0.5447225 0.2374333 0.534552 0.1711663 0.0520786 0.282047 0.1158694 0.3432349 0.07019752 0.3540881 0.0955516 0.2644624 0.1543329 0.3291488 0.1158694 0.3432349 0.1158694 0.3432349 0.1587029 0.4050495 0.1273936 0.4200676 0.1273936 0.4200676 0.169054 0.482143 0.1378442 0.4888787 0.1378442 0.4888787 0.171524 0.5297381 0.1506153 0.5418592 0.1052743 0.4980842 0.1506153 0.5418592 0.1247419 0.5606133 0.07163399 0.5079923 0.1247419 0.5606133 0.098984 0.5742149 0.07163399 0.5079923 0.07191663 0.5891165 0.03902971 0.5130229 0.04704278 0.4383522 0.03902971 0.5130229 0.01173371 0.4372682 0.5447225 0.2374333 0.5343662 0.306628 0.5103378 0.2352014 0.2663021 0.1699129 0.3173564 0.2482154 0.2704032 0.2495487 0.327767 0.1432551 0.3849403 0.1993291 0.3466816 0.2095727 0.2704032 0.2495487 0.3141056 0.3407066 0.2760462 0.3457251 0.3849403 0.1993291 0.3705493 0.2783846 0.3466816 0.2095727 0.2108907 0.1176236 0.2663021 0.1699129 0.2316284 0.1803439 0.242128 0.09752923 0.3115428 0.1598569 0.2663021 0.1699129 0.3173564 0.07880377 0.3644871 0.1343519 0.327767 0.1432551 0.3826676 0.078956 0.3644871 0.1343519 0.3564246 0.07977157 0.396797 0.1284965 0.3849403 0.1993291 0.3644871 0.1343519 0.4180874 0.197445 0.4064703 0.2738804 0.3849403 0.1993291 0.4409031 0.2808644 0.4251397 0.3550942 0.4064703 0.2738804 0.4064703 0.2738804 0.3742677 0.3424359 0.3705493 0.2783846 0.2760462 0.3457251 0.3038738 0.4208946 0.2761989 0.4305859 0.2447757 0.3588654 0.2761989 0.4305859 0.251817 0.4438371 0.231363 0.2572448 0.2760462 0.3457251 0.2447757 0.3588654 0.2316284 0.1803439 0.2704032 0.2495487 0.231363 0.2572448 0.5625026 0.8300747 0.5385936 0.869531 0.5341377 0.8318856 0.1934635 0.9611371 0.2226355 0.9631762 0.1927033 1 0.5341377 0.8318856 0.4882043 0.8456729 0.4899178 0.8148175 0.208447 0.9423069 0.2446123 0.9118204 0.2226355 0.9631762 0.5726125 0.8078312 0.5450722 0.7892108 0.5575268 0.7811784 0.5939856 0.850319 0.5625026 0.8300747 0.5726125 0.8078312 0.1693033 0.9610658 0.1927033 1 0.1608377 0.9962845 0.1750352 0.9412335 0.1934635 0.9611371 0.1693033 0.9610658 0.1889839 0.9345843 0.208447 0.9423069 0.1934635 0.9611371 0.2016727 0.9090276 0.2225236 0.9035881 0.208447 0.9423069 0.2113199 0.8764699 0.2292808 0.8423899 0.2225236 0.9035881 0.2225236 0.9035881 0.2470403 0.8452427 0.2446123 0.9118204 0.271764 0.8967652 0.2470403 0.8452427 0.2675713 0.8392291 0.2947128 0.8682074 0.2675713 0.8392291 0.2835795 0.8298265 0.5241758 0.7965223 0.4899178 0.8148175 0.4846665 0.7789087 0.5450722 0.7892108 0.5341377 0.8318856 0.5241758 0.7965223 0.1177558 0.6865506 0.1729578 0.7832075 0.145857 0.808868 0.1444792 0.6630418 0.1879073 0.7403961 0.1729578 0.7832075 0.145857 0.808868 0.1901112 0.8620973 0.175998 0.899249 0.1729578 0.7832075 0.2017995 0.8206475 0.1901112 0.8620973 0.07191663 0.5891165 0.1177558 0.6865506 0.08960181 0.7109094 0.098984 0.5742149 0.1444792 0.6630418 0.1177558 0.6865506 0.1247419 0.5606133 0.1674455 0.6372146 0.1444792 0.6630418 0.1506153 0.5418592 0.1858718 0.6162154 0.1674455 0.6372146 0.1674455 0.6372146 0.1995741 0.7114434 0.1879073 0.7403961 0.1879073 0.7403961 0.2109139 0.7891224 0.2017995 0.8206475 0.2017995 0.8206475 0.2169511 0.8391259 0.2113199 0.8764699 0.1901112 0.8620973 0.2113199 0.8764699 0.2016727 0.9090276 0.175998 0.899249 0.2016727 0.9090276 0.1889839 0.9345843 0.175998 0.899249 0.1750352 0.9412335 0.1534467 0.904549 0.145857 0.808868 0.1534467 0.904549 0.1184821 0.8136028 0.08960181 0.7109094 0.145857 0.808868 0.1184821 0.8136028 0.4178251 0.4764643 0.4231103 0.593698 0.3779304 0.4678496 0.4573386 0.4863088 0.4587181 0.6041527 0.4178251 0.4764643 0.4587181 0.6041527 0.4580109 0.7062404 0.4231103 0.593698 0.4937222 0.6119935 0.4956045 0.7259575 0.4587181 0.6041527 0.2761989 0.4305859 0.2713525 0.5310004 0.251817 0.4438371 0.3038738 0.4208946 0.3061582 0.5426505 0.2761989 0.4305859 0.4251397 0.3550942 0.4178251 0.4764643 0.3742677 0.3424359 0.4640833 0.3739894 0.4573386 0.4863088 0.4251397 0.3550942 0.4908258 0.4966121 0.4937222 0.6119935 0.4573386 0.4863088 0.5199301 0.6213327 0.5270098 0.7307127 0.4937222 0.6119935 0.5270098 0.7307127 0.5575268 0.7811784 0.5450722 0.7892108 0.5270098 0.7307127 0.5241758 0.7965223 0.4956045 0.7259575 0.4956045 0.7259575 0.4846665 0.7789087 0.4580109 0.7062404 0.3107961 0.78965 0.2835795 0.8298265 0.2881429 0.7651056 0.3173564 0.6706918 0.2881429 0.7651056 0.2893893 0.6624625 0.3061582 0.5426505 0.2893893 0.6624625 0.2713525 0.5310004 0.205747 0.5988808 0.239401 0.6810246 0.2168186 0.69356 0.2265641 0.5795363 0.2637187 0.6727352 0.239401 0.6810246 0.2168186 0.69356 0.2452073 0.7673379 0.2256782 0.7741119 0.239401 0.6810246 0.2668253 0.7631734 0.2452073 0.7673379 0.171524 0.5297381 0.205747 0.5988808 0.1858718 0.6162154 0.1825526 0.5084087 0.2265641 0.5795363 0.205747 0.5988808 0.2028601 0.4868627 0.2485696 0.5563898 0.2265641 0.5795363 0.2297321 0.4667683 0.2713525 0.5310004 0.2485696 0.5563898 0.2485696 0.5563898 0.2893893 0.6624625 0.2637187 0.6727352 0.2637187 0.6727352 0.2881429 0.7651056 0.2668253 0.7631734 0.2668253 0.7631734 0.2835795 0.8298265 0.2675713 0.8392291 0.2452073 0.7673379 0.2675713 0.8392291 0.2470403 0.8452427 0.2256782 0.7741119 0.2470403 0.8452427 0.2292808 0.8423899 0.2109139 0.7891224 0.2292808 0.8423899 0.2169511 0.8391259 0.1995741 0.7114434 0.2256782 0.7741119 0.2109139 0.7891224 0.1858718 0.6162154 0.2168186 0.69356 0.1995741 0.7114434 0.7489027 0.3579497 0.7991449 0.3579497 0.7931162 0.4008743 0.8024257 0.05436432 0.7646134 0.04766619 0.7673479 0 0.7991449 0.3579497 0.8457179 0.3726456 0.8280223 0.4102847 0.7646134 0.04766619 0.7254127 0.05056488 0.7121281 0.003904223 0.7227514 0.4118901 0.7565367 0.4012171 0.7614017 0.4335978 0.7002061 0.3750455 0.7489027 0.3579497 0.7565367 0.4012171 0.8343788 0.06889152 0.8024257 0.05436432 0.819057 0.01221299 0.8179885 0.08592998 0.7938464 0.08619153 0.8024257 0.05436432 0.7938464 0.08619153 0.7621 0.08161658 0.7646134 0.04766619 0.7621 0.08161658 0.7334384 0.08346867 0.7254127 0.05056488 0.7334384 0.08346867 0.7100843 0.08935981 0.690859 0.06638437 0.7254127 0.05056488 0.690859 0.06638437 0.6594814 0.02886503 0.8457179 0.3726456 0.8858171 0.3967235 0.8564388 0.4278591 0.8280223 0.4102847 0.8564388 0.4278591 0.8374581 0.4443743 0.7931162 0.4008743 0.8280223 0.4102847 0.8160942 0.4377197 0.7565367 0.4012171 0.7931162 0.4008743 0.7889678 0.4334739 0.171853 0.2910528 0.1943818 0.2478297 0.1925559 0.3327044 0.1943818 0.2478297 0.2156422 0.2089596 0.2116122 0.2910904 0.1747777 0.3724604 0.1925559 0.3327044 0.1976394 0.4180187 0.1925559 0.3327044 0.2116122 0.2910904 0.2208571 0.3859216 0.1514219 0.2474526 0.1802838 0.2064489 0.171853 0.2910528 0.1802838 0.2064489 0.1963573 0.1714021 0.1943818 0.2478297 0.1963573 0.1714021 0.1944172 0.1429406 0.2156422 0.2089596 0.1944172 0.1429406 0.2108907 0.1176236 0.2316284 0.1803439 0.2156422 0.2089596 0.2316284 0.1803439 0.231363 0.2572448 0.2116122 0.2910904 0.231363 0.2572448 0.2447757 0.3588654 0.2208571 0.3859216 0.2447757 0.3588654 0.251817 0.4438371 0.1976394 0.4180187 0.2208571 0.3859216 0.2297321 0.4667683 0.1799268 0.4513394 0.1976394 0.4180187 0.2028601 0.4868627 0.169054 0.482143 0.1799268 0.4513394 0.1825526 0.5084087 0.1587029 0.4050495 0.1747777 0.3724604 0.1799268 0.4513394 0.1543329 0.3291488 0.171853 0.2910528 0.1747777 0.3724604 0.8800489 0.5032311 0.916716 0.4956638 0.925803 0.6016179 0.6585991 0.1453269 0.6452407 0.2460183 0.6028349 0.2410551 0.8867787 0.6040117 0.925803 0.6016179 0.9297254 0.7057209 0.6452407 0.2460183 0.6393489 0.3497453 0.5956234 0.346257 0.8374581 0.4443743 0.8564388 0.4278591 0.8800489 0.5032311 0.8564388 0.4278591 0.8858171 0.3967235 0.916716 0.4956638 0.6594814 0.02886503 0.690859 0.06638437 0.6585991 0.1453269 0.690859 0.06638437 0.7100843 0.08935981 0.6949037 0.1544463 0.6949037 0.1544463 0.6859042 0.2507761 0.6452407 0.2460183 0.6859042 0.2507761 0.6815976 0.3566663 0.6393489 0.3497453 0.07092118 0.1597561 0.1514219 0.2474526 0.0955516 0.2644624 0.03616654 0.1797007 0.0955516 0.2644624 0.0520786 0.282047 0.5606586 0.08017426 0.5956234 0.08724963 0.5764603 0.1701439 0.5606586 0.08017426 0.534552 0.1711663 0.4972674 0.162629 0.8867787 0.6040117 0.8891693 0.7088551 0.8552509 0.708135 0.8491331 0.5077796 0.8800489 0.5032311 0.8867787 0.6040117 0.8981417 0.1405379 0.9062579 0.2489184 0.8644707 0.2488998 0.6774564 0.4872781 0.6554809 0.5890242 0.6108875 0.5808193 0.9062579 0.2489184 0.9062579 0.3564773 0.8639961 0.3485146 0.6108875 0.5808193 0.6554809 0.5890242 0.6404032 0.6967552 0.8179885 0.08592998 0.8343788 0.06889152 0.857816 0.1475229 0.8343788 0.06889152 0.8620582 0.04048466 0.8981417 0.1405379 0.7227514 0.4118901 0.6774564 0.4872781 0.6369241 0.47034 0.7363268 0.4366524 0.7176245 0.5007777 0.6774564 0.4872781 0.6774564 0.4872781 0.7176245 0.5007777 0.6982674 0.5964093 0.6982674 0.5964093 0.6850745 0.7022246 0.6404032 0.6967552 0.3582825 0.001030743 0.3985158 0.005547344 0.3826676 0.078956 0.3582825 0.001030743 0.3564246 0.07977157 0.3173564 0.07880377 0.2343128 0 0.2885891 0.08061081 0.242128 0.09752923 0.1605219 0.04175931 0.1926262 0.02072781 0.242128 0.09752923 0.8644707 0.2488998 0.8639961 0.3485146 0.8283209 0.3438957 0.857816 0.1475229 0.8644707 0.2488998 0.8315982 0.2472915 0.72994 0.1579249 0.7655676 0.1576965 0.7645485 0.2523117 0.7655676 0.1576965 0.7967644 0.1552135 0.799157 0.2490324 0.7251305 0.2528715 0.7645485 0.2523117 0.7635442 0.3552357 0.7645485 0.2523117 0.799157 0.2490324 0.7958601 0.3469394 0.7334384 0.08346867 0.72994 0.1579249 0.6949037 0.1544463 0.7621 0.08161658 0.7655676 0.1576965 0.72994 0.1579249 0.7938464 0.08619153 0.7967644 0.1552135 0.7655676 0.1576965 0.7938464 0.08619153 0.8179885 0.08592998 0.8253822 0.1513677 0.7967644 0.1552135 0.8253822 0.1513677 0.8315982 0.2472915 0.799157 0.2490324 0.8315982 0.2472915 0.8283209 0.3438957 0.1378652 0.06868028 0.1605219 0.04175931 0.2108907 0.1176236 0.1212369 0.100448 0.1378652 0.06868028 0.1944172 0.1429406 0.09770983 0.1326909 0.1212369 0.100448 0.1963573 0.1714021 0.09770983 0.1326909 0.1802838 0.2064489 0.1514219 0.2474526 0.7251305 0.2528715 0.723135 0.3579497 0.6815976 0.3566663 0.72994 0.1579249 0.7251305 0.2528715 0.6859042 0.2507761 0.7519366 0.5071288 0.7867983 0.5101858 0.7815387 0.6054397 0.7867983 0.5101858 0.8197339 0.5090896 0.8212577 0.6051422 0.7401149 0.601647 0.7815387 0.6054397 0.7749833 0.70944 0.7815387 0.6054397 0.8212577 0.6051422 0.8216311 0.7060181 0.7614017 0.4335978 0.7519366 0.5071288 0.7176245 0.5007777 0.7614017 0.4335978 0.7889678 0.4334739 0.7867983 0.5101858 0.8160942 0.4377197 0.8197339 0.5090896 0.7867983 0.5101858 0.8374581 0.4443743 0.8491331 0.5077796 0.8197339 0.5090896 0.8491331 0.5077796 0.8538041 0.605027 0.8212577 0.6051422 0.8538041 0.605027 0.8552509 0.708135 0.8216311 0.7060181 0.5347375 0.07043915 0.4972674 0.162629 0.4789081 0.1360368 0.5092033 0.05509251 0.4789081 0.1360368 0.447628 0.1127599 0.4718513 0.03880119 0.447628 0.1127599 0.4186118 0.0917862 0.4360781 0.02047133 0.4186118 0.0917862 0.3826676 0.078956 0.6982674 0.5964093 0.7401149 0.601647 0.7293494 0.7070224 0.7519366 0.5071288 0.7401149 0.601647 0.6982674 0.5964093 0.5581985 0.528831 0.5791177 0.6613113 0.5454 0.6430022 0.05414557 0.6969647 0.09187769 0.8229238 0.05393856 0.8149555 0.5791177 0.6613113 0.5956234 0.778598 0.566941 0.7541736 0.09187769 0.8229238 0.1318072 0.9169791 0.1066803 0.9387327 0.4955527 0.4001764 0.5223023 0.512533 0.4908258 0.4966121 0.5301547 0.4202232 0.5581985 0.528831 0.5223023 0.512533 0.03743988 0.574294 0.05414557 0.6969647 0.01777064 0.6808664 0.07191663 0.5891165 0.08960181 0.7109094 0.05414557 0.6969647 0.08960181 0.7109094 0.1184821 0.8136028 0.09187769 0.8229238 0.09187769 0.8229238 0.1184821 0.8136028 0.1534467 0.904549 0.1318072 0.9169791 0.1534467 0.904549 0.1750352 0.9412335 0.1066803 0.9387327 0.1318072 0.9169791 0.1693033 0.9610658 0.5956234 0.778598 0.5939856 0.850319 0.5726125 0.8078312 0.566941 0.7541736 0.5726125 0.8078312 0.5575268 0.7811784 0.5454 0.6430022 0.566941 0.7541736 0.5449235 0.7282162 0.5223023 0.512533 0.5454 0.6430022 0.5199301 0.6213327 0.4521698 0.1806361 0.4748119 0.2556069 0.4440253 0.2235321 0.4861767 0.2116515 0.5064347 0.2859947 0.4748119 0.2556069 0.4748119 0.2556069 0.5018903 0.3376585 0.4685752 0.3067574 0.5064347 0.2859947 0.5345629 0.3630094 0.5018903 0.3376585 0.4186118 0.0917862 0.4204812 0.1517754 0.396797 0.1284965 0.447628 0.1127599 0.4521698 0.1806361 0.4204812 0.1517754 0.4789081 0.1360368 0.4861767 0.2116515 0.4521698 0.1806361 0.4972674 0.162629 0.5103378 0.2352014 0.4861767 0.2116515 0.5103378 0.2352014 0.5343662 0.306628 0.5064347 0.2859947 0.01173371 0.4372682 0.03902971 0.5130229 0.009130001 0.4960052 0.03902971 0.5130229 0.07191663 0.5891165 0.03743988 0.574294 0.009130001 0.4960052 0.03743988 0.574294 0 0.557605 0.5018903 0.3376585 0.5301547 0.4202232 0.4955527 0.4001764 0.4685752 0.3067574 0.4955527 0.4001764 0.4640833 0.3739894 0.4440253 0.2235321 0.4685752 0.3067574 0.4409031 0.2808644 0.4204812 0.1517754 0.4440253 0.2235321 0.4180874 0.197445 0.07019752 0.3540881 0.08712846 0.4304601 0.04704278 0.4383522 0.07019752 0.3540881 0.1158694 0.3432349 0.1273936 0.4200676 0.08712846 0.4304601 0.1052743 0.4980842 0.07163399 0.5079923 0.08712846 0.4304601 0.1273936 0.4200676 0.1378442 0.4888787 0.534552 0.1711663 0.5447225 0.2374333 0.5103378 0.2352014 0.0520786 0.282047 0.07019752 0.3540881 0.02665078 0.3634941 0.0520786 0.282047 0.0955516 0.2644624 0.1158694 0.3432349 0.0955516 0.2644624 0.1514219 0.2474526 0.1543329 0.3291488 0.1158694 0.3432349 0.1543329 0.3291488 0.1587029 0.4050495 0.1273936 0.4200676 0.1587029 0.4050495 0.169054 0.482143 0.1378442 0.4888787 0.169054 0.482143 0.171524 0.5297381 0.1052743 0.4980842 0.1378442 0.4888787 0.1506153 0.5418592 0.07163399 0.5079923 0.1052743 0.4980842 0.1247419 0.5606133 0.07163399 0.5079923 0.098984 0.5742149 0.07191663 0.5891165 0.04704278 0.4383522 0.07163399 0.5079923 0.03902971 0.5130229 0.02665078 0.3634941 0.04704278 0.4383522 0.01173371 0.4372682 0.2663021 0.1699129 0.3115428 0.1598569 0.3173564 0.2482154 0.327767 0.1432551 0.3644871 0.1343519 0.3849403 0.1993291 0.2704032 0.2495487 0.3173564 0.2482154 0.3141056 0.3407066 0.3849403 0.1993291 0.4064703 0.2738804 0.3705493 0.2783846 0.2108907 0.1176236 0.242128 0.09752923 0.2663021 0.1699129 0.242128 0.09752923 0.2885891 0.08061081 0.3115428 0.1598569 0.3173564 0.07880377 0.3564246 0.07977157 0.3644871 0.1343519 0.3826676 0.078956 0.396797 0.1284965 0.3644871 0.1343519 0.396797 0.1284965 0.4180874 0.197445 0.3849403 0.1993291 0.4180874 0.197445 0.4409031 0.2808644 0.4064703 0.2738804 0.4409031 0.2808644 0.4640833 0.3739894 0.4251397 0.3550942 0.4064703 0.2738804 0.4251397 0.3550942 0.3742677 0.3424359 0.2760462 0.3457251 0.3141056 0.3407066 0.3038738 0.4208946 0.2447757 0.3588654 0.2760462 0.3457251 0.2761989 0.4305859 0.231363 0.2572448 0.2704032 0.2495487 0.2760462 0.3457251 0.2316284 0.1803439 0.2663021 0.1699129 0.2704032 0.2495487 0.5625026 0.8300747 0.580734 0.8758596 0.5385936 0.869531 0.1934635 0.9611371 0.208447 0.9423069 0.2226355 0.9631762 0.5341377 0.8318856 0.5385936 0.869531 0.4882043 0.8456729 0.208447 0.9423069 0.2225236 0.9035881 0.2446123 0.9118204 0.5726125 0.8078312 0.5625026 0.8300747 0.5450722 0.7892108 0.5939856 0.850319 0.580734 0.8758596 0.5625026 0.8300747 0.1693033 0.9610658 0.1934635 0.9611371 0.1927033 1 0.1750352 0.9412335 0.1889839 0.9345843 0.1934635 0.9611371 0.1889839 0.9345843 0.2016727 0.9090276 0.208447 0.9423069 0.2016727 0.9090276 0.2113199 0.8764699 0.2225236 0.9035881 0.2113199 0.8764699 0.2169511 0.8391259 0.2292808 0.8423899 0.2225236 0.9035881 0.2292808 0.8423899 0.2470403 0.8452427 0.271764 0.8967652 0.2446123 0.9118204 0.2470403 0.8452427 0.2947128 0.8682074 0.271764 0.8967652 0.2675713 0.8392291 0.5241758 0.7965223 0.5341377 0.8318856 0.4899178 0.8148175 0.5450722 0.7892108 0.5625026 0.8300747 0.5341377 0.8318856 0.1177558 0.6865506 0.1444792 0.6630418 0.1729578 0.7832075 0.1444792 0.6630418 0.1674455 0.6372146 0.1879073 0.7403961 0.145857 0.808868 0.1729578 0.7832075 0.1901112 0.8620973 0.1729578 0.7832075 0.1879073 0.7403961 0.2017995 0.8206475 0.07191663 0.5891165 0.098984 0.5742149 0.1177558 0.6865506 0.098984 0.5742149 0.1247419 0.5606133 0.1444792 0.6630418 0.1247419 0.5606133 0.1506153 0.5418592 0.1674455 0.6372146 0.1506153 0.5418592 0.171524 0.5297381 0.1858718 0.6162154 0.1674455 0.6372146 0.1858718 0.6162154 0.1995741 0.7114434 0.1879073 0.7403961 0.1995741 0.7114434 0.2109139 0.7891224 0.2017995 0.8206475 0.2109139 0.7891224 0.2169511 0.8391259 0.1901112 0.8620973 0.2017995 0.8206475 0.2113199 0.8764699 0.175998 0.899249 0.1901112 0.8620973 0.2016727 0.9090276 0.175998 0.899249 0.1889839 0.9345843 0.1750352 0.9412335 0.145857 0.808868 0.175998 0.899249 0.1534467 0.904549 0.08960181 0.7109094 0.1177558 0.6865506 0.145857 0.808868 0.4178251 0.4764643 0.4587181 0.6041527 0.4231103 0.593698 0.4573386 0.4863088 0.4937222 0.6119935 0.4587181 0.6041527 0.4587181 0.6041527 0.4956045 0.7259575 0.4580109 0.7062404 0.4937222 0.6119935 0.5270098 0.7307127 0.4956045 0.7259575 0.2761989 0.4305859 0.3061582 0.5426505 0.2713525 0.5310004 0.3742677 0.3424359 0.4178251 0.4764643 0.3779304 0.4678496 0.4251397 0.3550942 0.4573386 0.4863088 0.4178251 0.4764643 0.4640833 0.3739894 0.4908258 0.4966121 0.4573386 0.4863088 0.4908258 0.4966121 0.5199301 0.6213327 0.4937222 0.6119935 0.5199301 0.6213327 0.5449235 0.7282162 0.5270098 0.7307127 0.5270098 0.7307127 0.5449235 0.7282162 0.5575268 0.7811784 0.5270098 0.7307127 0.5450722 0.7892108 0.5241758 0.7965223 0.4956045 0.7259575 0.5241758 0.7965223 0.4846665 0.7789087 0.3107961 0.78965 0.2947128 0.8682074 0.2835795 0.8298265 0.3173564 0.6706918 0.3107961 0.78965 0.2881429 0.7651056 0.3061582 0.5426505 0.3173564 0.6706918 0.2893893 0.6624625 0.205747 0.5988808 0.2265641 0.5795363 0.239401 0.6810246 0.2265641 0.5795363 0.2485696 0.5563898 0.2637187 0.6727352 0.2168186 0.69356 0.239401 0.6810246 0.2452073 0.7673379 0.239401 0.6810246 0.2637187 0.6727352 0.2668253 0.7631734 0.171524 0.5297381 0.1825526 0.5084087 0.205747 0.5988808 0.1825526 0.5084087 0.2028601 0.4868627 0.2265641 0.5795363 0.2028601 0.4868627 0.2297321 0.4667683 0.2485696 0.5563898 0.2297321 0.4667683 0.251817 0.4438371 0.2713525 0.5310004 0.2485696 0.5563898 0.2713525 0.5310004 0.2893893 0.6624625 0.2637187 0.6727352 0.2893893 0.6624625 0.2881429 0.7651056 0.2668253 0.7631734 0.2881429 0.7651056 0.2835795 0.8298265 0.2452073 0.7673379 0.2668253 0.7631734 0.2675713 0.8392291 0.2256782 0.7741119 0.2452073 0.7673379 0.2470403 0.8452427 0.2109139 0.7891224 0.2256782 0.7741119 0.2292808 0.8423899 0.1995741 0.7114434 0.2168186 0.69356 0.2256782 0.7741119 0.1858718 0.6162154 0.205747 0.5988808 0.2168186 0.69356</float_array>
          <technique_common>
            <accessor source="#Shape_IndexedFaceSet-mesh-map-0-array" count="1344" stride="2">
              <param name="S" type="float"/>
              <param name="T" type="float"/>
            </accessor>
          </technique_common>
        </source>
        <vertices id="Shape_IndexedFaceSet-mesh-vertices">
          <input semantic="POSITION" source="#Shape_IndexedFaceSet-mesh-positions"/>
        </vertices>
        <triangles material="MA_Material_001-material" count="448">
          <input semantic="VERTEX" source="#Shape_IndexedFaceSet-mesh-vertices" offset="0"/>
          <input semantic="NORMAL" source="#Shape_IndexedFaceSet-mesh-normals" offset="1"/>
          <input semantic="TEXCOORD" source="#Shape_IndexedFaceSet-mesh-map-0" offset="2" set="0"/>
          <p>101 0 0 103 0 1 100 0 2 102 1 3 104 1 4 101 1 5 104 2 6 106 2 7 103 2 8 105 3 9 107 3 10 104 3 11 18 0 12 19 0 13 0 0 14 17 0 15 100 0 16 18 0 17 16 4 18 101 4 19 17 4 20 2 5 21 102 5 22 16 5 23 27 6 24 105 6 25 102 6 26 26 7 27 108 7 28 105 7 29 25 0 30 24 0 31 108 0 32 108 8 33 23 8 34 107 8 35 107 9 36 22 9 37 106 9 38 106 10 39 1 10 40 21 10 41 103 11 42 21 11 43 20 11 44 100 0 45 20 0 46 19 0 47 109 12 48 113 12 49 112 12 50 110 13 51 114 13 52 113 13 53 112 14 54 116 14 55 115 14 56 113 15 57 117 15 58 116 15 59 7 16 60 109 16 61 69 16 62 37 17 63 110 17 64 109 17 65 38 18 66 111 18 67 110 18 68 39 19 69 64 19 70 111 19 71 111 20 72 65 20 73 114 20 74 114 21 75 66 21 76 117 21 77 117 22 78 10 22 79 63 22 80 116 23 81 63 23 82 62 23 83 115 24 84 62 24 85 61 24 86 67 25 87 61 25 88 11 25 89 68 26 90 115 26 91 67 26 92 69 27 93 112 27 94 68 27 95 118 28 96 122 28 97 121 28 98 120 29 99 122 29 100 119 29 101 121 30 102 125 30 103 124 30 104 123 31 105 125 31 106 122 31 107 1 32 108 118 32 109 45 32 110 22 33 111 119 33 112 118 33 113 23 34 114 120 34 115 119 34 116 24 35 117 40 35 118 120 35 119 40 36 120 123 36 121 120 36 122 41 37 123 126 37 124 123 37 125 42 38 126 36 38 127 126 38 128 126 39 129 35 39 130 125 39 131 124 40 132 35 40 133 34 40 134 124 41 135 5 41 136 43 41 137 121 42 138 43 42 139 44 42 140 45 43 141 121 43 142 44 43 143 128 44 144 130 44 145 127 44 146 129 45 147 131 45 148 128 45 149 131 46 150 133 46 151 130 46 152 131 45 153 135 45 154 134 45 155 2 47 156 127 47 157 51 47 158 16 48 159 128 48 160 127 48 161 18 45 162 128 45 163 17 45 164 0 45 165 129 45 166 18 45 167 129 45 168 47 45 169 132 45 170 47 45 171 135 45 172 132 45 173 135 49 174 4 49 175 30 49 176 135 50 177 29 50 178 134 50 179 134 51 180 28 51 181 133 51 182 49 52 183 28 52 184 6 52 185 130 53 186 49 53 187 50 53 188 127 54 189 50 54 190 51 54 191 136 55 192 140 55 193 139 55 194 137 56 195 141 56 196 140 56 197 139 57 198 143 57 199 142 57 200 140 58 201 144 58 202 143 58 203 25 59 204 40 59 205 3 59 206 26 60 207 136 60 208 25 60 209 27 61 210 137 61 211 26 61 212 27 62 213 51 62 214 138 62 215 138 63 216 50 63 217 141 63 218 141 64 219 49 64 220 144 64 221 144 65 222 6 65 223 39 65 224 143 66 225 39 66 226 38 66 227 142 67 228 38 67 229 37 67 230 142 68 231 7 68 232 42 68 233 139 69 234 42 69 235 41 69 236 136 70 237 41 70 238 40 70 239 145 71 240 149 71 241 148 71 242 146 72 243 150 72 244 149 72 245 148 73 246 152 73 247 151 73 248 149 74 249 153 74 250 152 74 251 19 75 252 46 75 253 0 75 254 19 76 255 146 76 256 145 76 257 21 77 258 146 77 259 20 77 260 1 78 261 147 78 262 21 78 263 45 79 264 150 79 265 147 79 266 44 80 267 153 80 268 150 80 269 43 81 270 33 81 271 153 81 272 153 82 273 32 82 274 152 82 275 152 83 276 31 83 277 151 83 278 151 84 279 4 84 280 48 84 281 47 75 282 151 75 283 48 75 284 145 75 285 47 75 286 46 75 287 155 85 288 157 85 289 154 85 290 156 86 291 158 86 292 155 86 293 158 87 294 160 87 295 157 87 296 159 88 297 161 88 298 158 88 299 55 89 300 93 89 301 8 89 302 56 90 303 154 90 304 55 90 305 57 91 306 155 91 307 56 91 308 9 92 309 156 92 310 57 92 311 88 93 312 159 93 313 156 93 314 159 94 315 90 94 316 162 94 317 162 95 318 13 95 319 81 95 320 161 96 321 81 96 322 80 96 323 161 97 324 79 97 325 160 97 326 160 98 327 12 98 328 91 98 329 157 99 330 91 99 331 92 99 332 154 100 333 92 100 334 93 100 335 164 101 336 166 101 337 163 101 338 165 102 339 167 102 340 164 102 341 167 103 342 169 103 343 166 103 344 168 104 345 170 104 346 167 104 347 31 105 348 75 105 349 4 105 350 32 106 351 163 106 352 31 106 353 33 107 354 164 107 355 32 107 356 5 108 357 165 108 358 33 108 359 70 109 360 168 109 361 165 109 362 71 110 363 171 110 364 168 110 365 72 111 366 57 111 367 171 111 368 171 112 369 56 112 370 170 112 371 170 113 372 55 113 373 169 113 374 169 114 375 8 114 376 73 114 377 166 115 378 73 115 379 74 115 380 163 116 381 74 116 382 75 116 383 173 117 384 175 117 385 172 117 386 173 118 387 177 118 388 176 118 389 176 119 390 178 119 391 175 119 392 176 120 393 180 120 394 179 120 395 34 121 396 70 121 397 5 121 398 35 122 399 172 122 400 34 122 401 35 123 402 174 123 403 173 123 404 36 124 405 69 124 406 174 124 407 174 125 408 68 125 409 177 125 410 177 126 411 67 126 412 180 126 413 180 127 414 11 127 415 60 127 416 179 128 417 60 128 418 59 128 419 178 129 420 59 129 421 58 129 422 178 130 423 9 130 424 72 130 425 175 131 426 72 131 427 71 131 428 172 132 429 71 132 430 70 132 431 181 133 432 185 133 433 184 133 434 182 134 435 186 134 436 185 134 437 184 135 438 188 135 439 187 135 440 186 136 441 188 136 442 185 136 443 6 137 444 181 137 445 64 137 446 28 138 447 182 138 448 181 138 449 29 139 450 183 139 451 182 139 452 4 140 453 183 140 454 30 140 455 75 141 456 186 141 457 183 141 458 74 142 459 189 142 460 186 142 461 73 143 462 54 143 463 189 143 464 189 144 465 53 144 466 188 144 467 187 145 468 53 145 469 52 145 470 66 146 471 52 146 472 10 146 473 65 147 474 187 147 475 66 147 476 64 148 477 184 148 478 65 148 479 190 149 480 194 149 481 193 149 482 192 150 483 194 150 484 191 150 485 193 151 486 197 151 487 196 151 488 195 152 489 197 152 490 194 152 491 79 153 492 78 153 493 12 153 494 80 154 495 190 154 496 79 154 497 81 155 498 191 155 499 80 155 500 13 156 501 192 156 502 81 156 503 82 157 504 195 157 505 192 157 506 83 158 507 198 158 508 195 158 509 84 159 510 85 159 511 198 159 512 198 160 513 86 160 514 197 160 515 196 161 516 86 161 517 87 161 518 76 162 519 87 162 520 14 162 521 77 163 522 196 163 523 76 163 524 78 164 525 193 164 526 77 164 527 199 165 528 203 165 529 202 165 530 200 166 531 204 166 532 203 166 533 202 167 534 206 167 535 205 167 536 203 168 537 207 168 538 206 168 539 9 169 540 199 169 541 88 169 542 58 170 543 200 170 544 199 170 545 59 171 546 201 171 547 200 171 548 60 172 549 94 172 550 201 172 551 201 173 552 95 173 553 204 173 554 204 174 555 96 174 556 207 174 557 207 175 558 15 175 559 84 175 560 206 176 561 84 176 562 83 176 563 205 177 564 83 177 565 82 177 566 205 178 567 13 178 568 90 178 569 202 179 570 90 179 571 89 179 572 88 180 573 202 180 574 89 180 575 209 181 576 211 181 577 208 181 578 210 182 579 212 182 580 209 182 581 212 183 582 214 183 583 211 183 584 213 184 585 215 184 586 212 184 587 52 185 588 99 185 589 10 185 590 53 186 591 208 186 592 52 186 593 54 187 594 209 187 595 53 187 596 8 188 597 210 188 598 54 188 599 93 189 600 213 189 601 210 189 602 92 190 603 216 190 604 213 190 605 216 191 606 12 191 607 78 191 608 216 192 609 77 192 610 215 192 611 215 193 612 76 193 613 214 193 614 214 194 615 14 194 616 97 194 617 211 195 618 97 195 619 98 195 620 208 196 621 98 196 622 99 196 623 217 197 624 221 197 625 220 197 626 218 198 627 222 198 628 221 198 629 220 199 630 224 199 631 223 199 632 221 200 633 225 200 634 224 200 635 11 201 636 217 201 637 94 201 638 61 202 639 218 202 640 217 202 641 62 203 642 219 203 643 218 203 644 63 204 645 99 204 646 219 204 647 219 205 648 98 205 649 222 205 650 222 206 651 97 206 652 225 206 653 225 207 654 14 207 655 87 207 656 224 208 657 87 208 658 86 208 659 223 209 660 86 209 661 85 209 662 96 210 663 85 210 664 15 210 665 95 211 666 223 211 667 96 211 668 94 212 669 220 212 670 95 212 671 101 0 672 104 0 673 103 0 674 102 213 675 105 213 676 104 213 677 104 214 678 107 214 679 106 214 680 105 215 681 108 215 682 107 215 683 18 0 684 100 0 685 19 0 686 17 0 687 101 0 688 100 0 689 16 216 690 102 216 691 101 216 692 2 217 693 27 217 694 102 217 695 27 218 696 26 218 697 105 218 698 26 219 699 25 219 700 108 219 701 25 0 702 3 0 703 24 0 704 108 220 705 24 220 706 23 220 707 107 221 708 23 221 709 22 221 710 106 222 711 22 222 712 1 222 713 103 223 714 106 223 715 21 223 716 100 0 717 103 0 718 20 0 719 109 224 720 110 224 721 113 224 722 110 225 723 111 225 724 114 225 725 112 226 726 113 226 727 116 226 728 113 227 729 114 227 730 117 227 731 7 228 732 37 228 733 109 228 734 37 229 735 38 229 736 110 229 737 38 230 738 39 230 739 111 230 740 39 231 741 6 231 742 64 231 743 111 232 744 64 232 745 65 232 746 114 233 747 65 233 748 66 233 749 117 234 750 66 234 751 10 234 752 116 235 753 117 235 754 63 235 755 115 236 756 116 236 757 62 236 758 67 237 759 115 237 760 61 237 761 68 238 762 112 238 763 115 238 764 69 239 765 109 239 766 112 239 767 118 240 768 119 240 769 122 240 770 120 241 771 123 241 772 122 241 773 121 242 774 122 242 775 125 242 776 123 243 777 126 243 778 125 243 779 1 244 780 22 244 781 118 244 782 22 245 783 23 245 784 119 245 785 23 246 786 24 246 787 120 246 788 24 247 789 3 247 790 40 247 791 40 248 792 41 248 793 123 248 794 41 249 795 42 249 796 126 249 797 42 250 798 7 250 799 36 250 800 126 251 801 36 251 802 35 251 803 124 252 804 125 252 805 35 252 806 124 253 807 34 253 808 5 253 809 121 254 810 124 254 811 43 254 812 45 255 813 118 255 814 121 255 815 128 256 816 131 256 817 130 256 818 129 45 819 132 45 820 131 45 821 131 257 822 134 257 823 133 257 824 131 45 825 132 45 826 135 45 827 2 258 828 16 258 829 127 258 830 16 259 831 17 259 832 128 259 833 18 45 834 129 45 835 128 45 836 0 45 837 46 45 838 129 45 839 129 45 840 46 45 841 47 45 842 47 45 843 48 45 844 135 45 845 135 260 846 48 260 847 4 260 848 135 261 849 30 261 850 29 261 851 134 262 852 29 262 853 28 262 854 49 263 855 133 263 856 28 263 857 130 264 858 133 264 859 49 264 860 127 265 861 130 265 862 50 265 863 136 266 864 137 266 865 140 266 866 137 267 867 138 267 868 141 267 869 139 268 870 140 268 871 143 268 872 140 269 873 141 269 874 144 269 875 25 270 876 136 270 877 40 270 878 26 271 879 137 271 880 136 271 881 27 272 882 138 272 883 137 272 884 27 273 885 2 273 886 51 273 887 138 274 888 51 274 889 50 274 890 141 275 891 50 275 892 49 275 893 144 276 894 49 276 895 6 276 896 143 277 897 144 277 898 39 277 899 142 278 900 143 278 901 38 278 902 142 279 903 37 279 904 7 279 905 139 280 906 142 280 907 42 280 908 136 281 909 139 281 910 41 281 911 145 282 912 146 282 913 149 282 914 146 283 915 147 283 916 150 283 917 148 284 918 149 284 919 152 284 920 149 285 921 150 285 922 153 285 923 19 75 924 145 75 925 46 75 926 19 286 927 20 286 928 146 286 929 21 287 930 147 287 931 146 287 932 1 288 933 45 288 934 147 288 935 45 289 936 44 289 937 150 289 938 44 290 939 43 290 940 153 290 941 43 291 942 5 291 943 33 291 944 153 292 945 33 292 946 32 292 947 152 293 948 32 293 949 31 293 950 151 294 951 31 294 952 4 294 953 47 75 954 148 75 955 151 75 956 145 75 957 148 75 958 47 75 959 155 295 960 158 295 961 157 295 962 156 296 963 159 296 964 158 296 965 158 297 966 161 297 967 160 297 968 159 298 969 162 298 970 161 298 971 55 299 972 154 299 973 93 299 974 56 300 975 155 300 976 154 300 977 57 301 978 156 301 979 155 301 980 9 302 981 88 302 982 156 302 983 88 303 984 89 303 985 159 303 986 159 304 987 89 304 988 90 304 989 162 305 990 90 305 991 13 305 992 161 306 993 162 306 994 81 306 995 161 307 996 80 307 997 79 307 998 160 308 999 79 308 1000 12 308 1001 157 309 1002 160 309 1003 91 309 1004 154 310 1005 157 310 1006 92 310 1007 164 311 1008 167 311 1009 166 311 1010 165 312 1011 168 312 1012 167 312 1013 167 313 1014 170 313 1015 169 313 1016 168 314 1017 171 314 1018 170 314 1019 31 315 1020 163 315 1021 75 315 1022 32 316 1023 164 316 1024 163 316 1025 33 317 1026 165 317 1027 164 317 1028 5 318 1029 70 318 1030 165 318 1031 70 319 1032 71 319 1033 168 319 1034 71 320 1035 72 320 1036 171 320 1037 72 321 1038 9 321 1039 57 321 1040 171 322 1041 57 322 1042 56 322 1043 170 323 1044 56 323 1045 55 323 1046 169 324 1047 55 324 1048 8 324 1049 166 325 1050 169 325 1051 73 325 1052 163 326 1053 166 326 1054 74 326 1055 173 327 1056 176 327 1057 175 327 1058 173 328 1059 174 328 1060 177 328 1061 176 329 1062 179 329 1063 178 329 1064 176 330 1065 177 330 1066 180 330 1067 34 331 1068 172 331 1069 70 331 1070 35 332 1071 173 332 1072 172 332 1073 35 333 1074 36 333 1075 174 333 1076 36 334 1077 7 334 1078 69 334 1079 174 335 1080 69 335 1081 68 335 1082 177 336 1083 68 336 1084 67 336 1085 180 337 1086 67 337 1087 11 337 1088 179 338 1089 180 338 1090 60 338 1091 178 339 1092 179 339 1093 59 339 1094 178 340 1095 58 340 1096 9 340 1097 175 341 1098 178 341 1099 72 341 1100 172 342 1101 175 342 1102 71 342 1103 181 343 1104 182 343 1105 185 343 1106 182 344 1107 183 344 1108 186 344 1109 184 345 1110 185 345 1111 188 345 1112 186 346 1113 189 346 1114 188 346 1115 6 347 1116 28 347 1117 181 347 1118 28 348 1119 29 348 1120 182 348 1121 29 349 1122 30 349 1123 183 349 1124 4 350 1125 75 350 1126 183 350 1127 75 351 1128 74 351 1129 186 351 1130 74 352 1131 73 352 1132 189 352 1133 73 353 1134 8 353 1135 54 353 1136 189 354 1137 54 354 1138 53 354 1139 187 355 1140 188 355 1141 53 355 1142 66 356 1143 187 356 1144 52 356 1145 65 357 1146 184 357 1147 187 357 1148 64 358 1149 181 358 1150 184 358 1151 190 359 1152 191 359 1153 194 359 1154 192 360 1155 195 360 1156 194 360 1157 193 361 1158 194 361 1159 197 361 1160 195 362 1161 198 362 1162 197 362 1163 79 363 1164 190 363 1165 78 363 1166 80 364 1167 191 364 1168 190 364 1169 81 365 1170 192 365 1171 191 365 1172 13 366 1173 82 366 1174 192 366 1175 82 367 1176 83 367 1177 195 367 1178 83 368 1179 84 368 1180 198 368 1181 84 369 1182 15 369 1183 85 369 1184 198 370 1185 85 370 1186 86 370 1187 196 371 1188 197 371 1189 86 371 1190 76 372 1191 196 372 1192 87 372 1193 77 373 1194 193 373 1195 196 373 1196 78 374 1197 190 374 1198 193 374 1199 199 375 1200 200 375 1201 203 375 1202 200 376 1203 201 376 1204 204 376 1205 202 377 1206 203 377 1207 206 377 1208 203 378 1209 204 378 1210 207 378 1211 9 379 1212 58 379 1213 199 379 1214 58 380 1215 59 380 1216 200 380 1217 59 381 1218 60 381 1219 201 381 1220 60 382 1221 11 382 1222 94 382 1223 201 383 1224 94 383 1225 95 383 1226 204 384 1227 95 384 1228 96 384 1229 207 385 1230 96 385 1231 15 385 1232 206 386 1233 207 386 1234 84 386 1235 205 387 1236 206 387 1237 83 387 1238 205 388 1239 82 388 1240 13 388 1241 202 389 1242 205 389 1243 90 389 1244 88 390 1245 199 390 1246 202 390 1247 209 391 1248 212 391 1249 211 391 1250 210 392 1251 213 392 1252 212 392 1253 212 393 1254 215 393 1255 214 393 1256 213 394 1257 216 394 1258 215 394 1259 52 395 1260 208 395 1261 99 395 1262 53 396 1263 209 396 1264 208 396 1265 54 397 1266 210 397 1267 209 397 1268 8 398 1269 93 398 1270 210 398 1271 93 399 1272 92 399 1273 213 399 1274 92 400 1275 91 400 1276 216 400 1277 216 401 1278 91 401 1279 12 401 1280 216 402 1281 78 402 1282 77 402 1283 215 403 1284 77 403 1285 76 403 1286 214 404 1287 76 404 1288 14 404 1289 211 405 1290 214 405 1291 97 405 1292 208 406 1293 211 406 1294 98 406 1295 217 407 1296 218 407 1297 221 407 1298 218 408 1299 219 408 1300 222 408 1301 220 409 1302 221 409 1303 224 409 1304 221 410 1305 222 410 1306 225 410 1307 11 411 1308 61 411 1309 217 411 1310 61 412 1311 62 412 1312 218 412 1313 62 413 1314 63 413 1315 219 413 1316 63 414 1317 10 414 1318 99 414 1319 219 415 1320 99 415 1321 98 415 1322 222 416 1323 98 416 1324 97 416 1325 225 417 1326 97 417 1327 14 417 1328 224 418 1329 225 418 1330 87 418 1331 223 419 1332 224 419 1333 86 419 1334 96 420 1335 223 420 1336 85 420 1337 95 421 1338 220 421 1339 223 421 1340 94 422 1341 217 422 1342 220 422 1343</p>
        </triangles>
      </mesh>
    </geometry>
  </library_geometries>
  <library_controllers>
    <controller id="Armature_Shape_IndexedFaceSet-skin" name="Armature">
      <skin source="#Shape_IndexedFaceSet-mesh">
        <bind_shape_matrix>1 -2.75358e-7 2.75358e-7 0 2.75358e-7 1 3.7911e-14 0 -2.75358e-7 3.7911e-14 1 0 0 0 0 1</bind_shape_matrix>
        <source id="Armature_Shape_IndexedFaceSet-skin-joints">
          <Name_array id="Armature_Shape_IndexedFaceSet-skin-joints-array" count="6">centroid Bone_001_Bot Bone_003_Bot Bone_004_Top Bone_005_Top Bone_006_Top</Name_array>
          <technique_common>
            <accessor source="#Armature_Shape_IndexedFaceSet-skin-joints-array" count="6" stride="1">
              <param name="JOINT" type="name"/>
            </accessor>
          </technique_common>
        </source>
        <source id="Armature_Shape_IndexedFaceSet-skin-bind_poses">
          <float_array id="Armature_Shape_IndexedFaceSet-skin-bind_poses-array" count="96">0.7573757 0.06216394 0.6500137 -4.523829 -0.5877986 0.4984468 0.6372158 -1.767391 -0.2843852 -0.8646886 0.4140512 -1.906827 0 0 0 1 -0.7084767 -1.68587e-7 0.7057343 -2.988885 -0.7057343 0 -0.7084766 4.779448 2.21904e-7 -0.9999999 -3.26208e-7 0.01335847 0 0 0 1 -0.9991008 -3.05421e-7 0.04240506 -0.0253542 -0.04240483 0 -0.9991006 4.399899 4.10938e-7 -1 -1.46987e-7 0.01335763 0 0 0 1 0.4748745 0.003275334 -0.8800475 4.240056 0.8798897 0.01753658 0.4748546 -3.714462 0.01698839 -0.9998409 0.005445539 -0.03789949 0 0 0 1 0.6993066 0.03787863 -0.7138177 2.506963 0.6616515 -0.4122297 0.6263257 -5.959331 -0.2705324 -0.9102922 -0.3133375 2.85507 0 0 0 1 0.7489922 0.007113158 -0.6625409 1.853455 0.5528026 -0.5579582 0.6189442 -7.84597 -0.3652673 -0.8298386 -0.4218386 4.205087 0 0 0 1</float_array>
          <technique_common>
            <accessor source="#Armature_Shape_IndexedFaceSet-skin-bind_poses-array" count="6" stride="16">
              <param name="TRANSFORM" type="float4x4"/>
            </accessor>
          </technique_common>
        </source>
        <source id="Armature_Shape_IndexedFaceSet-skin-weights">
          <float_array id="Armature_Shape_IndexedFaceSet-skin-weights-array" count="398">1 1 1 1 0.5056569 0.4943431 0.04025584 0.7212111 0.117645 0.1208879 0.5033347 0.4966654 0.05918771 0.7075616 0.10637 0.1268807 0.6513522 0.3486478 0.008592069 0.8603852 0.1310226 0.9080197 0.09198039 0.1647498 0.8352501 1 1 1 1 1 1 1 1 1 1 1 1 1 1 1 1 0.4935352 0.5064647 0.5036792 0.4963209 0.5133918 0.4866082 0.5505962 0.4494038 0.7407835 0.2592164 0.7648687 0.1841999 0.05093127 0.811523 0.07205939 0.1164175 0.8574743 0.06511569 0.07740992 0.7996774 0.09506511 0.1052576 0.01506024 0.7660371 0.1628946 0.0560081 0.7323503 0.2676498 0.5712907 0.4287092 1 1 0.137487 0.862513 0.1313968 0.8686031 1 1 1 1 0.1131772 0.8868228 0.08236712 0.9176328 1 1 0.9580395 0.04196053 1 0.8327943 0.1672056 0.3781018 0.5873528 0.0345453 0.183518 0.7524788 0.0640031 0.07248759 0.835846 0.0916664 0.01001107 0.911168 0.07882088 0.03556936 0.9330719 0.03135865 0.1060772 0.8939228 0.2972055 0.7027944 0.5259391 0.4740609 0.8105714 0.1894286 0.8510904 0.1489095 0.07654345 0.7217826 0.01146507 0.1902088 0.008723616 0.06880879 0.9224676 0.5079054 0.4920945 0.01080644 0.923033 0.06616055 0.07883262 0.1958733 0.725294 0.07667976 0.2308886 0.6924316 0.0358799 0.8324908 0.1316293 0.2756994 0.7243006 0.1493297 0.8255016 0.02516865 0.7816591 0.02866941 0.1896715 0.8160437 0.1839563 1 1 1 1 1 1 1 1 1 1 1 1 0.05449759 0.9455025 1 1 1 0.07127135 0.9287286 0.03888237 0.7005813 0.2605364 0.7808963 0.2191038 0.07454502 0.9254549 1 1 0.0800172 0.9199828 0.111447 0.888553 1 1 1 1 1 1 1 1 1 0.18847 0.4013637 0.01951122 0.3906551 0.102564 0.6679426 0.05862063 0.1708728 0.01900863 0.8250072 0.09557425 0.06040984 0.01985085 0.07733279 0.9028163 0.1046503 0.197666 0.6976836 0.1628982 0.4356364 0.4014655 0.7590466 0.2409533 0.9123833 0.08761668 0.01046884 0.9783259 0.01120525 1 1 1 1 1 1 0.1276119 0.8723881 0.1183505 0.8816496 0.1239394 0.8760605 1 1 1 1 1 1 0.09092748 0.9090726 0.1055179 0.894482 0.1088025 0.8911975 1 1 1 1 1 1 0.1209687 0.8790312 0.1044521 0.8955479 0.08644694 0.9135531 1 1 1 1 1 1 0.1207516 0.8792484 0.1215022 0.8784977 0.119199 0.880801 0.5744245 0.4255755 0.2766506 0.7233494 0.1331592 0.8668408 1 1 1 1 1 1 0.8240484 0.1131519 0.06279963 0.05313169 0.7160449 0.06736886 0.1634545 0.175985 0.4068241 0.02575469 0.3914362 0.02121156 0.5863865 0.3924019 0.05868279 0.2472568 0.6932473 8.12999e-4 0.09871435 0.8264893 0.07479637 0.06305909 0.8337947 0.1031461 0.7557899 0.24421 0.560788 0.439212 0.1386281 0.8613719 0.07519495 0.9248051 0.1253769 0.8746231 0.8701342 0.1298658 0.9183143 0.08168572 0.917397 0.08260303 0.1697206 0.8302794 0.1660021 0.8339979 0.4376099 0.5623902 0.8755324 0.1244677 0.8885766 0.1114233 0.8558878 0.1441122 0.001319229 0.8656839 0.1329969 0.8996185 0.1003814 0.8568341 0.01018935 0.1329765 0.0729779 0.927022 0.06501501 0.9349849 0.1246138 0.8753862 1 1 1 1 1 1 1 1 1 0.09700363 0.9029964 0.2078737 0.7921262 0.6338981 0.3661018 1 1 1 1 1 1 0.06980621 0.8933123 0.0368815 0.06662666 0.8394886 0.09388464 0.06791329 0.7617184 0.1703683 0.07997721 0.9200228 0.07521051 0.9247895 0.0819137 0.9180864 1 1 1 0.8514764 0.1485236 0.9143745 0.08562552 0.04527914 0.9201419 0.0345788 0.08550781 0.9144921 0.06492614 0.9350739 0.0541442 0.9458557 1 1 1</float_array>
          <technique_common>
            <accessor source="#Armature_Shape_IndexedFaceSet-skin-weights-array" count="398" stride="1">
              <param name="WEIGHT" type="float"/>
            </accessor>
          </technique_common>
        </source>
        <joints>
          <input semantic="JOINT" source="#Armature_Shape_IndexedFaceSet-skin-joints"/>
          <input semantic="INV_BIND_MATRIX" source="#Armature_Shape_IndexedFaceSet-skin-bind_poses"/>
        </joints>
        <vertex_weights count="226">
          <input semantic="JOINT" source="#Armature_Shape_IndexedFaceSet-skin-joints" offset="0"/>
          <input semantic="WEIGHT" source="#Armature_Shape_IndexedFaceSet-skin-weights" offset="1"/>
          <vcount>1 1 1 1 2 4 2 4 2 3 2 2 1 1 1 1 1 1 1 1 1 1 1 1 1 1 1 1 2 2 2 2 2 3 3 3 3 4 2 2 1 1 2 2 1 1 1 1 2 2 1 1 2 1 2 3 3 3 3 3 2 2 2 2 2 4 3 2 3 3 3 3 2 3 3 2 1 1 1 1 1 1 1 1 1 1 1 1 2 1 1 1 2 3 2 2 1 1 2 2 1 1 1 1 1 1 1 1 1 4 4 4 3 3 3 2 2 3 1 1 1 1 1 1 2 2 2 1 1 1 1 1 1 2 2 2 1 1 1 1 1 1 2 2 2 1 1 1 1 1 1 2 2 2 2 2 2 1 1 1 1 1 1 3 4 4 3 4 3 3 2 2 2 2 2 2 2 2 2 2 2 2 2 2 3 2 3 2 2 2 1 1 1 1 1 1 1 1 1 2 2 2 1 1 1 1 1 1 3 3 3 2 2 2 1 1 1 2 2 3 2 2 2 1 1 1 </vcount>
          <v>2 0 2 1 2 2 2 3 1 4 2 5 0 6 1 7 2 8 3 9 1 10 2 11 0 12 1 13 2 14 3 15 3 16 4 17 3 18 4 19 5 20 3 21 4 22 3 23 4 24 5 25 5 26 5 27 5 28 2 29 2 30 2 31 2 32 2 33 2 34 2 35 2 36 2 37 2 38 2 39 2 40 1 41 2 42 1 43 2 44 1 45 2 46 1 47 2 48 1 49 2 50 1 51 2 52 3 53 1 54 2 55 3 56 1 57 2 58 3 59 1 60 2 61 3 62 0 63 1 64 2 65 3 66 1 67 2 68 1 69 2 70 2 71 2 72 1 73 2 74 1 75 2 76 2 77 2 78 2 79 2 80 1 81 2 82 1 83 2 84 2 85 2 86 3 87 4 88 3 89 3 90 4 91 3 92 4 93 5 94 3 95 4 96 5 97 3 98 4 99 5 100 3 101 4 102 5 103 3 104 4 105 5 106 3 107 4 108 3 109 4 110 3 111 4 112 3 113 4 114 1 115 2 116 0 117 1 118 2 119 3 120 0 121 1 122 3 123 3 124 4 125 1 126 3 127 4 128 0 129 1 130 3 131 0 132 1 133 3 134 1 135 3 136 4 137 3 138 4 139 1 140 3 141 4 142 1 143 2 144 3 145 1 146 2 147 5 148 5 149 5 150 5 151 5 152 5 153 5 154 5 155 5 156 5 157 5 158 5 159 4 160 5 161 5 162 5 163 5 164 4 165 5 166 3 167 4 168 5 169 4 170 5 171 4 172 5 173 5 174 5 175 4 176 5 177 3 178 4 179 2 180 2 181 2 182 2 183 2 184 2 185 2 186 2 187 2 188 0 189 1 190 2 191 3 192 0 193 1 194 2 195 3 196 0 197 1 198 2 199 3 200 0 201 1 202 3 203 0 204 1 205 3 206 0 207 1 208 3 209 3 210 4 211 3 212 4 213 1 214 3 215 4 216 2 217 2 218 2 219 2 220 2 221 2 222 1 223 2 224 1 225 2 226 1 227 2 228 2 229 2 230 2 231 2 232 2 233 2 234 1 235 2 236 1 237 2 238 1 239 2 240 2 241 2 242 2 243 2 244 2 245 2 246 1 247 2 248 1 249 2 250 1 251 2 252 2 253 2 254 2 255 2 256 2 257 2 258 1 259 2 260 1 261 2 262 1 263 2 264 4 265 5 266 4 267 5 268 4 269 5 270 5 271 5 272 5 273 5 274 5 275 5 276 1 277 2 278 3 279 0 280 1 281 2 282 3 283 0 284 1 285 2 286 3 287 0 288 1 289 3 290 0 291 1 292 3 293 4 294 1 295 3 296 4 297 1 298 3 299 4 300 3 301 4 302 3 303 4 304 1 305 3 306 1 307 3 308 1 309 3 310 3 311 4 312 3 313 4 314 3 315 4 316 3 317 4 318 3 319 4 320 3 321 4 322 1 323 2 324 1 325 2 326 1 327 2 328 0 329 1 330 3 331 1 332 3 333 1 334 2 335 3 336 1 337 3 338 1 339 3 340 1 341 3 342 5 343 5 344 5 345 5 346 5 347 5 348 5 349 5 350 5 351 4 352 5 353 4 354 5 355 4 356 5 357 5 358 5 359 5 360 5 361 5 362 5 363 3 364 4 365 5 366 3 367 4 368 5 369 3 370 4 371 5 372 4 373 5 374 4 375 5 376 4 377 5 378 5 379 5 380 5 381 4 382 5 383 4 384 5 385 3 386 4 387 5 388 4 389 5 390 4 391 5 392 4 393 5 394 5 395 5 396 5 397</v>
        </vertex_weights>
      </skin>
    </controller>
  </library_controllers>
  <library_visual_scenes>
    <visual_scene id="Scene" name="Scene">
      <node id="Armature" name="Armature" type="NODE">
        <matrix sid="transform">1 0 0 1.845095 0 1 0 -0.486643 0 0 1 4.856284 0 0 0 1</matrix>
        <node id="Armature_centroid" name="centroid" sid="centroid" type="JOINT">
          <matrix sid="transform">0.7573757 -0.5877985 -0.2843853 0 0.06216394 0.4984466 -0.8646888 0 0.6500136 0.6372156 0.4140513 0 0 0 0 1</matrix>
          <node id="Armature_Bone_001_Bot" name="Bone.001.Bot" sid="Bone_001_Bot" type="JOINT">
            <matrix sid="transform">-0.07784599 -0.9950255 -0.06216397 -5.96046e-8 0.8661463 -0.03662288 -0.498447 1.003117 0.4936907 -0.09264529 0.8646886 2.98023e-8 0 0 0 1</matrix>
            <node id="Armature_Bone_003_Bot" name="Bone.003.Bot" sid="Bone_003_Bot" type="JOINT">
              <matrix sid="transform">0.7377658 -0.6750565 -7.44359e-9 0 0.6750565 0.737766 -2.60382e-7 1.550467 1.81264e-7 1.87076e-7 1 0 0 0 0 1</matrix>
              <extra>
                <technique profile="blender">
                  <connect sid="connect" type="bool">1</connect>
                  <collections type="string">Bones</collections>
                  <roll sid="roll" type="float">-3.099175</roll>
                  <tip_x sid="tip_x" type="float">-0.1757552</tip_x>
                  <tip_y sid="tip_y" type="float">5.36442e-7</tip_y>
                  <tip_z sid="tip_z" type="float">-4.140952</tip_z>
                </technique>
              </extra>
            </node>
            <extra>
              <technique profile="blender">
                <connect sid="connect" type="bool">1</connect>
                <collections type="string">Bones</collections>
                <roll sid="roll" type="float">-2.358134</roll>
              </technique>
            </extra>
          </node>
          <node id="Armature_Bone_004_Top" name="Bone.004.Top" sid="Bone_004_Top" type="JOINT">
            <matrix sid="transform">-0.2121809 0.976159 -0.04574773 -5.96046e-8 -0.8382779 -0.2058719 -0.5048831 1.003117 -0.5022644 -0.06877714 0.8619745 2.98023e-8 0 0 0 1</matrix>
            <node id="Armature_Bone_005_Top" name="Bone.005.Top" sid="Bone_005_Top" type="JOINT">
              <matrix sid="transform">0.9604002 -0.2383453 0.1443013 5.96046e-8 0.2770172 0.8723648 -0.4027918 1.939776 -0.02987985 0.4268153 0.9038451 5.96046e-8 0 0 0 1</matrix>
              <node id="Armature_Bone_006_Top" name="Bone.006.Top" sid="Bone_006_Top" type="JOINT">
                <matrix sid="transform">0.9969778 -0.07636961 0.01424864 -1.19209e-7 0.07767296 0.9834303 -0.1638039 2.30148 -0.001502931 0.1644155 0.98639 -1.19209e-7 0 0 0 1</matrix>
                <extra>
                  <technique profile="blender">
                    <connect sid="connect" type="bool">1</connect>
                    <collections type="string">Bones</collections>
                    <roll sid="roll" type="float">0.7375825</roll>
                    <tip_x sid="tip_x" type="float">1.811526</tip_x>
                    <tip_y sid="tip_y" type="float">-1.828421</tip_y>
                    <tip_z sid="tip_z" type="float">2.028272</tip_z>
                  </technique>
                </extra>
              </node>
              <extra>
                <technique profile="blender">
                  <connect sid="connect" type="bool">1</connect>
                  <collections type="string">Bones</collections>
                  <roll sid="roll" type="float">0.8544061</roll>
                </technique>
              </extra>
            </node>
            <extra>
              <technique profile="blender">
                <connect sid="connect" type="bool">1</connect>
                <collections type="string">Bones</collections>
                <roll sid="roll" type="float">1.07919</roll>
              </technique>
            </extra>
          </node>
          <extra>
            <technique profile="blender">
              <collections type="string">Bones</collections>
              <roll sid="roll" type="float">-0.6733117</roll>
            </technique>
          </extra>
        </node>
        <node id="Shape_IndexedFaceSet" name="Shape_IndexedFaceSet" type="NODE">
          <matrix sid="transform">1 0 0 0 0 1 0 0 0 0 1 0 0 0 0 1</matrix>
          <instance_controller url="#Armature_Shape_IndexedFaceSet-skin">
            <skeleton>#Armature_centroid</skeleton>
            <bind_material>
              <technique_common>
                <instance_material symbol="MA_Material_001-material" target="#MA_Material_001-material">
                  <bind_vertex_input semantic="Shape_IndexedFaceSet-mesh-map-0" input_semantic="TEXCOORD" input_set="0"/>
                </instance_material>
              </technique_common>
            </bind_material>
          </instance_controller>
        </node>
        <extra>
          <technique profile="blender">
            <collections sid="collections" type="string">Bones</collections>
            <visible_collections sid="visible_collections" type="string">Bones</visible_collections>
            <active_collection sid="active_collection" type="string">Bones</active_collection>
          </technique>
        </extra>
      </node>
    </visual_scene>
  </library_visual_scenes>
  <scene>
    <instance_visual_scene url="#Scene"/>
  </scene>
</COLLADA>