<?xml version="1.0" encoding="utf-8"?>
<COLLADA xmlns="http://www.collada.org/2005/11/COLLADASchema" version="1.4.1" xmlns:xsi="http://www.w3.org/2001/XMLSchema-instance">
  <asset>
    <contributor>
      <author>Blender User</author>
      <authoring_tool>Blender 4.0.2 commit date:2023-12-05, commit time:07:41, hash:9be62e85b727</authoring_tool>
    </contributor>
    <created>2023-12-08T12:39:35</created>
    <modified>2023-12-08T12:39:35</modified>
    <unit name="meter" meter="1"/>
    <up_axis>Z_UP</up_axis>
  </asset>
  <library_effects>
    <effect id="Material_001-effect">
      <profile_COMMON>
        <technique sid="common">
          <lambert>
            <emission>
              <color sid="emission">0 0 0 1</color>
            </emission>
            <diffuse>
              <color sid="diffuse">0.8 0.8 0.8 1</color>
            </diffuse>
            <index_of_refraction>
              <float sid="ior">1.45</float>
            </index_of_refraction>
          </lambert>
        </technique>
      </profile_COMMON>
    </effect>
  </library_effects>
  <library_images/>
  <library_materials>
    <material id="Material_001-material" name="Material.001">
      <instance_effect url="#Material_001-effect"/>
    </material>
  </library_materials>
  <library_geometries>
    <geometry id="Cube_001-mesh" name="Cube.001">
      <mesh>
        <source id="Cube_001-mesh-positions">
          <float_array id="Cube_001-mesh-positions-array" count="24">1 1 1 1 1 -1 1 -1 1 1 -1 -1 -1 1 1 -1 1 -1 -1 -1 1 -1 -1 -1</float_array>
          <technique_common>
            <accessor source="#Cube_001-mesh-positions-array" count="8" stride="3">
              <param name="X" type="float"/>
              <param name="Y" type="float"/>
              <param name="Z" type="float"/>
            </accessor>
          </technique_common>
        </source>
        <source id="Cube_001-mesh-normals">
          <float_array id="Cube_001-mesh-normals-array" count="18">0 0 1 0 -1 0 -1 0 0 0 0 -1 1 0 0 0 1 0</float_array>
          <technique_common>
            <accessor source="#Cube_001-mesh-normals-array" count="6" stride="3">
              <param name="X" type="float"/>
              <param name="Y" type="float"/>
              <param name="Z" type="float"/>
            </accessor>
          </technique_common>
        </source>
        <source id="Cube_001-mesh-map-0">
          <float_array id="Cube_001-mesh-map-0-array" count="72">0.8750001 0.5 0.625 0.75 0.625 0.5 0.625 0.75 0.375 1 0.375 0.75 0.625 0 0.375 0.25 0.375 0 0.375 0.5 0.125 0.75 0.125 0.5 0.625 0.5 0.375 0.75 0.375 0.5 0.625 0.25 0.375 0.5 0.375 0.25 0.8750001 0.5 0.8750001 0.75 0.625 0.75 0.625 0.75 0.625 1 0.375 1 0.625 0 0.625 0.25 0.375 0.25 0.375 0.5 0.375 0.75 0.125 0.75 0.625 0.5 0.625 0.75 0.375 0.75 0.625 0.25 0.625 0.5 0.375 0.5</float_array>
          <technique_common>
            <accessor source="#Cube_001-mesh-map-0-array" count="36" stride="2">
              <param name="S" type="float"/>
              <param name="T" type="float"/>
            </accessor>
          </technique_common>
        </source>
        <vertices id="Cube_001-mesh-vertices">
          <input semantic="POSITION" source="#Cube_001-mesh-positions"/>
        </vertices>
        <triangles material="Material_001-material" count="12">
          <input semantic="VERTEX" source="#Cube_001-mesh-vertices" offset="0"/>
          <input semantic="NORMAL" source="#Cube_001-mesh-normals" offset="1"/>
          <input semantic="TEXCOORD" source="#Cube_001-mesh-map-0" offset="2" set="0"/>
          <p>4 0 0 2 0 1 0 0 2 2 1 3 7 1 4 3 1 5 6 2 6 5 2 7 7 2 8 1 3 9 7 3 10 5 3 11 0 4 12 3 4 13 1 4 14 4 5 15 1 5 16 5 5 17 4 0 18 6 0 19 2 0 20 2 1 21 6 1 22 7 1 23 6 2 24 4 2 25 5 2 26 1 3 27 3 3 28 7 3 29 0 4 30 2 4 31 3 4 32 4 5 33 0 5 34 1 5 35</p>
        </triangles>
      </mesh>
    </geometry>
  </library_geometries>
  <library_controllers>
    <controller id="Armature_Cube-skin" name="Armature">
      <skin source="#Cube_001-mesh">
        <bind_shape_matrix>1 0 0 0 0 1 0 0 0 0 1 1 0 0 0 1</bind_shape_matrix>
        <source id="Armature_Cube-skin-joints">
          <Name_array id="Armature_Cube-skin-joints-array" count="6">Bone Bone_001 Bone_002 Bone_003 Bone_004 Bone_005</Name_array>
          <technique_common>
            <accessor source="#Armature_Cube-skin-joints-array" count="6" stride="1">
              <param name="JOINT" type="name"/>
            </accessor>
          </technique_common>
        </source>
        <source id="Armature_Cube-skin-bind_poses">
          <float_array id="Armature_Cube-skin-bind_poses-array" count="96">1 0 -7.54739e-5 -7.54739e-5 7.54736e-5 -0.004613876 0.9999895 0.9999895 -2.43929e-7 -0.9999895 -0.004613876 -0.004613876 0 0 0 1 1 -7.56745e-5 -3.64005e-7 -7.56745e-5 -7.56737e-5 -0.9999981 0.001983404 -0.004600882 -5.14091e-7 -0.001983344 -0.9999981 -0.001983404 0 0 0 1 1 7.498e-5 0 -7.49799e-5 -7.498e-5 0.9999981 0.001965045 0.00460869 0 -0.001965165 0.9999981 0.001965224 0 0 0 1 1 0 7.51766e-5 -7.51766e-5 -7.51762e-5 0.004595696 0.9999895 0.001995384 -2.70382e-7 -0.9999895 0.004595696 -0.004595696 0 0 0 1 0 0.004613757 -0.9999895 -0.001953005 1 0 0 -7.53254e-5 0 -0.9999895 -0.004613757 -0.004613876 0 0 0 1 0 -0.004614233 0.9999895 0.001953005 -1 0 0 7.53254e-5 0 -0.9999895 -0.004614233 -0.004613876 0 0 0 1</float_array>
          <technique_common>
            <accessor source="#Armature_Cube-skin-bind_poses-array" count="6" stride="16">
              <param name="TRANSFORM" type="float4x4"/>
            </accessor>
          </technique_common>
        </source>
        <source id="Armature_Cube-skin-weights">
          <float_array id="Armature_Cube-skin-weights-array" count="30">0.41892 0.4543133 0.1267665 0.1015106 0.06103819 0.09919655 0.7382546 0.08910769 0.05358034 0.1482003 0.7091116 0.7102279 0.0792644 0.2105076 0.07998746 0.180898 0.5148423 0.2242721 0.1622573 0.09756505 0.3354598 0.4047178 0.05849564 0.01956641 0.7758111 0.1461267 0.3052738 0.05075901 0.3923406 0.2516266</float_array>
          <technique_common>
            <accessor source="#Armature_Cube-skin-weights-array" count="30" stride="1">
              <param name="WEIGHT" type="float"/>
            </accessor>
          </technique_common>
        </source>
        <joints>
          <input semantic="JOINT" source="#Armature_Cube-skin-joints"/>
          <input semantic="INV_BIND_MATRIX" source="#Armature_Cube-skin-bind_poses"/>
        </joints>
        <vertex_weights count="8">
          <input semantic="JOINT" source="#Armature_Cube-skin-joints" offset="0"/>
          <input semantic="WEIGHT" source="#Armature_Cube-skin-weights" offset="1"/>
          <vcount>3 4 4 3 4 4 4 4 </vcount>
          <v>2 0 3 1 4 2 0 3 2 4 3 5 4 6 0 7 2 8 3 9 4 10 0 11 3 12 4 13 0 14 2 15 3 16 4 17 0 18 2 19 3 20 4 21 0 22 2 23 3 24 4 25 0 26 2 27 3 28 4 29</v>
        </vertex_weights>
      </skin>
    </controller>
  </library_controllers>
  <library_visual_scenes>
    <visual_scene id="Scene" name="Scene">
      <node id="Armature" name="Armature" type="NODE">
        <matrix sid="transform">1 0 0 0 0 1 0 0 0 0 1 -1 0 0 0 1</matrix>
        <node id="Armature_Bone" name="Bone" sid="Bone" type="JOINT">
          <matrix sid="transform">1 7.54736e-5 -2.43926e-7 0 1.04301e-7 -0.004613898 -0.9999893 0 -7.54739e-5 0.9999893 -0.004613882 0 0 0 0 1</matrix>
          <node id="Armature_Bone_001" name="Bone.001" sid="Bone_001" type="JOINT">
            <matrix sid="transform">1 -7.59277e-5 7.49594e-5 -7.27596e-12 7.54587e-5 0.0065972 -0.9999782 0.9980364 7.54315e-5 0.9999782 0.006597281 4.65661e-10 0 0 0 1</matrix>
            <extra>
              <technique profile="blender">
                <connect sid="connect" type="bool">1</connect>
                <collections type="string">Bones</collections>
                <roll sid="roll" type="float">-0.07627224</roll>
                <tip_x sid="tip_x" type="float">-7.53254e-5</tip_x>
                <tip_y sid="tip_y" type="float">-0.9953952</tip_y>
                <tip_z sid="tip_z" type="float">0.001974225</tip_z>
              </technique>
            </extra>
          </node>
          <node id="Armature_Bone_002" name="Bone.002" sid="Bone_002" type="JOINT">
            <matrix sid="transform">1 -7.5024e-5 -7.54003e-5 -7.27596e-12 7.52013e-5 -0.002648728 0.9999966 0.9980364 -7.52234e-5 -0.9999966 -0.00264883 4.65661e-10 0 0 0 1</matrix>
            <extra>
              <technique profile="blender">
                <connect sid="connect" type="bool">1</connect>
                <collections type="string">Bones</collections>
                <tip_x sid="tip_x" type="float">-7.53254e-5</tip_x>
                <tip_y sid="tip_y" type="float">1.004605</tip_y>
                <tip_z sid="tip_z" type="float">0.001974225</tip_z>
              </technique>
            </extra>
          </node>
          <node id="Armature_Bone_003" name="Bone.003" sid="Bone_003" type="JOINT">
            <matrix sid="transform">1 -1.50649e-4 -7.21539e-7 -7.27596e-12 1.50649e-4 0.9999577 0.009209517 0.9980364 -6.65894e-7 -0.009209517 0.9999577 4.65661e-10 0 0 0 1</matrix>
            <extra>
              <technique profile="blender">
                <connect sid="connect" type="bool">1</connect>
                <collections type="string">Bones</collections>
                <roll sid="roll" type="float">-7.51019e-5</roll>
                <tip_x sid="tip_x" type="float">-7.53254e-5</tip_x>
                <tip_y sid="tip_y" type="float">0.004604816</tip_y>
                <tip_z sid="tip_z" type="float">1.001974</tip_z>
              </technique>
            </extra>
          </node>
          <node id="Armature_Bone_004" name="Bone.004" sid="Bone_004" type="JOINT">
            <matrix sid="transform">7.54595e-5 1 2.43921e-7 -7.27596e-12 -1 7.54736e-5 9.73232e-8 0.9980364 9.73232e-8 -2.43929e-7 1 4.65661e-10 0 0 0 1</matrix>
            <extra>
              <technique profile="blender">
                <connect sid="connect" type="bool">1</connect>
                <collections type="string">Bones</collections>
                <roll sid="roll" type="float">1.57541</roll>
                <tip_x sid="tip_x" type="float">1</tip_x>
                <tip_y sid="tip_y" type="float">0</tip_y>
                <tip_z sid="tip_z" type="float">0</tip_z>
              </technique>
            </extra>
          </node>
          <node id="Armature_Bone_005" name="Bone.005" sid="Bone_005" type="JOINT">
            <matrix sid="transform">-7.54595e-5 -1 2.43957e-7 -7.27596e-12 1 -7.54736e-5 -3.79514e-7 0.9980364 3.79514e-7 2.43929e-7 1 4.65661e-10 0 0 0 1</matrix>
            <extra>
              <technique profile="blender">
                <connect sid="connect" type="bool">1</connect>
                <collections type="string">Bones</collections>
                <roll sid="roll" type="float">-1.575411</roll>
                <tip_x sid="tip_x" type="float">-1</tip_x>
                <tip_y sid="tip_y" type="float">0</tip_y>
                <tip_z sid="tip_z" type="float">0</tip_z>
              </technique>
            </extra>
          </node>
          <extra>
            <technique profile="blender">
              <collections type="string">Bones</collections>
              <roll sid="roll" type="float">7.55787e-5</roll>
            </technique>
          </extra>
        </node>
        <node id="Cube" name="Cube" type="NODE">
          <matrix sid="transform">1 0 0 0 0 1 0 0 0 0 1 0 0 0 0 1</matrix>
          <instance_controller url="#Armature_Cube-skin">
            <skeleton>#Armature_Bone</skeleton>
            <bind_material>
              <technique_common>
                <instance_material symbol="Material_001-material" target="#Material_001-material">
                  <bind_vertex_input semantic="Cube-mesh-map-0" input_semantic="TEXCOORD" input_set="0"/>
                </instance_material>
              </technique_common>
            </bind_material>
          </instance_controller>
        </node>
        <extra>
          <technique profile="blender">
            <collections sid="collections" type="string">Bones</collections>
            <visible_collections sid="visible_collections" type="string">Bones</visible_collections>
            <active_collection sid="active_collection" type="string">Bones</active_collection>
          </technique>
        </extra>
      </node>
    </visual_scene>
  </library_visual_scenes>
  <scene>
    <instance_visual_scene url="#Scene"/>
  </scene>
</COLLADA>